%TF.GenerationSoftware,KiCad,Pcbnew,9.0.6*%
%TF.CreationDate,2026-02-24T19:23:11+07:00*%
%TF.ProjectId,ps,70732e6b-6963-4616-945f-706362585858,rev?*%
%TF.SameCoordinates,Original*%
%TF.FileFunction,Soldermask,Bot*%
%TF.FilePolarity,Negative*%
%FSLAX46Y46*%
G04 Gerber Fmt 4.6, Leading zero omitted, Abs format (unit mm)*
G04 Created by KiCad (PCBNEW 9.0.6) date 2026-02-24 19:23:11*
%MOMM*%
%LPD*%
G01*
G04 APERTURE LIST*
G04 Aperture macros list*
%AMRoundRect*
0 Rectangle with rounded corners*
0 $1 Rounding radius*
0 $2 $3 $4 $5 $6 $7 $8 $9 X,Y pos of 4 corners*
0 Add a 4 corners polygon primitive as box body*
4,1,4,$2,$3,$4,$5,$6,$7,$8,$9,$2,$3,0*
0 Add four circle primitives for the rounded corners*
1,1,$1+$1,$2,$3*
1,1,$1+$1,$4,$5*
1,1,$1+$1,$6,$7*
1,1,$1+$1,$8,$9*
0 Add four rect primitives between the rounded corners*
20,1,$1+$1,$2,$3,$4,$5,0*
20,1,$1+$1,$4,$5,$6,$7,0*
20,1,$1+$1,$6,$7,$8,$9,0*
20,1,$1+$1,$8,$9,$2,$3,0*%
%AMHorizOval*
0 Thick line with rounded ends*
0 $1 width*
0 $2 $3 position (X,Y) of the first rounded end (center of the circle)*
0 $4 $5 position (X,Y) of the second rounded end (center of the circle)*
0 Add line between two ends*
20,1,$1,$2,$3,$4,$5,0*
0 Add two circle primitives to create the rounded ends*
1,1,$1,$2,$3*
1,1,$1,$4,$5*%
%AMRotRect*
0 Rectangle, with rotation*
0 The origin of the aperture is its center*
0 $1 length*
0 $2 width*
0 $3 Rotation angle, in degrees counterclockwise*
0 Add horizontal line*
21,1,$1,$2,0,0,$3*%
G04 Aperture macros list end*
%ADD10HorizOval,1.200000X-0.344683X-0.060777X0.344683X0.060777X0*%
%ADD11C,1.450000*%
%ADD12HorizOval,1.200000X0.344683X0.060777X-0.344683X-0.060777X0*%
%ADD13RoundRect,0.250000X-0.550000X0.550000X-0.550000X-0.550000X0.550000X-0.550000X0.550000X0.550000X0*%
%ADD14C,1.600000*%
%ADD15C,1.982000*%
%ADD16C,2.490000*%
%ADD17RoundRect,0.102000X0.000000X0.924896X-0.924896X0.000000X0.000000X-0.924896X0.924896X0.000000X0*%
%ADD18C,1.512000*%
%ADD19HorizOval,1.434000X-0.434871X0.434871X0.434871X-0.434871X0*%
%ADD20C,1.712000*%
%ADD21RoundRect,0.102000X-0.754000X-0.754000X0.754000X-0.754000X0.754000X0.754000X-0.754000X0.754000X0*%
%ADD22C,3.204000*%
%ADD23RotRect,3.000000X3.000000X170.000000*%
%ADD24C,3.000000*%
%ADD25RoundRect,0.102000X0.530498X-0.757630X0.757630X0.530498X-0.530498X0.757630X-0.757630X-0.530498X0*%
%ADD26HorizOval,1.434000X-0.605657X0.106794X0.605657X-0.106794X0*%
%ADD27RoundRect,0.250000X0.350000X0.450000X-0.350000X0.450000X-0.350000X-0.450000X0.350000X-0.450000X0*%
%ADD28RoundRect,0.250000X-1.950000X-1.000000X1.950000X-1.000000X1.950000X1.000000X-1.950000X1.000000X0*%
%ADD29RoundRect,0.102000X0.500000X-1.725000X0.500000X1.725000X-0.500000X1.725000X-0.500000X-1.725000X0*%
%ADD30RoundRect,0.102000X5.250000X-4.925000X5.250000X4.925000X-5.250000X4.925000X-5.250000X-4.925000X0*%
%ADD31C,3.450000*%
%ADD32C,2.390000*%
%ADD33RoundRect,0.102000X-3.770000X-3.175000X3.770000X-3.175000X3.770000X3.175000X-3.770000X3.175000X0*%
%ADD34RoundRect,0.250000X-0.382387X0.422824X-0.503940X-0.266541X0.382387X-0.422824X0.503940X0.266541X0*%
%ADD35RoundRect,0.250000X0.300000X-2.050000X0.300000X2.050000X-0.300000X2.050000X-0.300000X-2.050000X0*%
%ADD36RoundRect,0.250002X5.149998X-4.449998X5.149998X4.449998X-5.149998X4.449998X-5.149998X-4.449998X0*%
%ADD37RoundRect,0.102000X3.781418X-3.161392X2.472111X4.264058X-3.781418X3.161392X-2.472111X-4.264058X0*%
%ADD38RoundRect,0.250000X1.950000X1.000000X-1.950000X1.000000X-1.950000X-1.000000X1.950000X-1.000000X0*%
%ADD39RoundRect,0.102000X1.125000X0.775000X-1.125000X0.775000X-1.125000X-0.775000X1.125000X-0.775000X0*%
%ADD40RoundRect,0.250000X-0.350000X-0.450000X0.350000X-0.450000X0.350000X0.450000X-0.350000X0.450000X0*%
G04 APERTURE END LIST*
D10*
%TO.C,J1*%
X213904168Y-62315838D03*
D11*
X211071539Y-61799880D03*
X210203298Y-56875841D03*
D12*
X212688631Y-55422183D03*
%TD*%
D13*
%TO.C,SW15*%
X122727500Y-52440000D03*
D14*
X120187500Y-52440000D03*
X117647500Y-52440000D03*
X117647500Y-60060000D03*
X120187500Y-60060000D03*
X122727500Y-60060000D03*
%TD*%
D15*
%TO.C,U3*%
X180675000Y-101356300D03*
X187025000Y-101356300D03*
X180675000Y-106436300D03*
X187025000Y-106436300D03*
X181310000Y-124216300D03*
X183850000Y-124216300D03*
X186390000Y-124216300D03*
D16*
X176230000Y-107388800D03*
X176230000Y-120723800D03*
X191470000Y-120723800D03*
X191470000Y-107388800D03*
D15*
X173690000Y-111516300D03*
X173690000Y-114056300D03*
X173690000Y-116596300D03*
%TD*%
%TO.C,U2*%
X125075000Y-100920000D03*
X131425000Y-100920000D03*
X125075000Y-106000000D03*
X131425000Y-106000000D03*
X125710000Y-123780000D03*
X128250000Y-123780000D03*
X130790000Y-123780000D03*
D16*
X120630000Y-106952500D03*
X120630000Y-120287500D03*
X135870000Y-120287500D03*
X135870000Y-106952500D03*
D15*
X118090000Y-111080000D03*
X118090000Y-113620000D03*
X118090000Y-116160000D03*
%TD*%
D17*
%TO.C,S1*%
X191953414Y-55221586D03*
D18*
X190539200Y-56635800D03*
X189124986Y-58050014D03*
D19*
X193509048Y-53665952D03*
X187569352Y-59605648D03*
%TD*%
D20*
%TO.C,U5*%
X154955000Y-104150000D03*
D21*
X152415000Y-104150000D03*
D20*
X157495000Y-104150000D03*
X160035000Y-104150000D03*
D22*
X145225000Y-104650000D03*
X167225000Y-104650000D03*
X167225000Y-126650000D03*
X145225000Y-126650000D03*
%TD*%
D23*
%TO.C,RV2*%
X102937400Y-57733700D03*
D24*
X102069159Y-62657739D03*
X101200918Y-67581779D03*
X107861439Y-58601941D03*
X106993198Y-63525980D03*
X106124957Y-68450019D03*
%TD*%
D25*
%TO.C,S2*%
X100100004Y-79900016D03*
D18*
X100447300Y-77930400D03*
X100794596Y-75960784D03*
D26*
X99717978Y-82066593D03*
X101176622Y-73794207D03*
%TD*%
D27*
%TO.C,R8*%
X150825000Y-100975000D03*
X148825000Y-100975000D03*
%TD*%
D28*
%TO.C,C6*%
X180075000Y-114725000D03*
X188475000Y-114725000D03*
%TD*%
D29*
%TO.C,U7*%
X153180000Y-121575000D03*
D30*
X150640000Y-112175000D03*
D29*
X148100000Y-121575000D03*
%TD*%
D31*
%TO.C,BT1*%
X119325000Y-77625000D03*
X175175000Y-95625000D03*
D32*
X185725000Y-77625000D03*
D33*
X105200000Y-86625000D03*
X189300000Y-86625000D03*
%TD*%
D34*
%TO.C,R19*%
X103523648Y-78015192D03*
X103176352Y-79984808D03*
%TD*%
D35*
%TO.C,U6*%
X167325000Y-120900000D03*
X165625000Y-120900000D03*
X163925000Y-120900000D03*
D36*
X163925000Y-111750000D03*
D35*
X162225000Y-120900000D03*
X160525000Y-120900000D03*
%TD*%
D31*
%TO.C,BT2*%
X214975044Y-72325010D03*
D32*
X195416517Y-65060956D03*
D37*
X218262806Y-142799766D03*
X203658994Y-59977434D03*
%TD*%
D38*
%TO.C,C5*%
X132550000Y-113550000D03*
X124150000Y-113550000D03*
%TD*%
D39*
%TO.C,D8*%
X163025000Y-126225000D03*
X159025000Y-126225000D03*
%TD*%
D28*
%TO.C,C9*%
X112567500Y-127975000D03*
X120967500Y-127975000D03*
%TD*%
D27*
%TO.C,R5*%
X157150000Y-101100000D03*
X155150000Y-101100000D03*
%TD*%
D40*
%TO.C,R6*%
X159250000Y-101075000D03*
X161250000Y-101075000D03*
%TD*%
M02*
