%TF.GenerationSoftware,KiCad,Pcbnew,9.0.6*%
%TF.CreationDate,2026-02-24T19:23:11+07:00*%
%TF.ProjectId,ps,70732e6b-6963-4616-945f-706362585858,rev?*%
%TF.SameCoordinates,Original*%
%TF.FileFunction,Legend,Bot*%
%TF.FilePolarity,Positive*%
%FSLAX46Y46*%
G04 Gerber Fmt 4.6, Leading zero omitted, Abs format (unit mm)*
G04 Created by KiCad (PCBNEW 9.0.6) date 2026-02-24 19:23:11*
%MOMM*%
%LPD*%
G01*
G04 APERTURE LIST*
%ADD10C,0.100000*%
%ADD11C,0.150000*%
%ADD12C,0.120000*%
%ADD13C,0.000000*%
%ADD14C,0.200000*%
%ADD15C,0.127000*%
G04 APERTURE END LIST*
D10*
X113446115Y-146372419D02*
X113446115Y-145372419D01*
X113446115Y-145372419D02*
X113208020Y-145372419D01*
X113208020Y-145372419D02*
X113065163Y-145420038D01*
X113065163Y-145420038D02*
X112969925Y-145515276D01*
X112969925Y-145515276D02*
X112922306Y-145610514D01*
X112922306Y-145610514D02*
X112874687Y-145800990D01*
X112874687Y-145800990D02*
X112874687Y-145943847D01*
X112874687Y-145943847D02*
X112922306Y-146134323D01*
X112922306Y-146134323D02*
X112969925Y-146229561D01*
X112969925Y-146229561D02*
X113065163Y-146324800D01*
X113065163Y-146324800D02*
X113208020Y-146372419D01*
X113208020Y-146372419D02*
X113446115Y-146372419D01*
X112065163Y-146324800D02*
X112160401Y-146372419D01*
X112160401Y-146372419D02*
X112350877Y-146372419D01*
X112350877Y-146372419D02*
X112446115Y-146324800D01*
X112446115Y-146324800D02*
X112493734Y-146229561D01*
X112493734Y-146229561D02*
X112493734Y-145848609D01*
X112493734Y-145848609D02*
X112446115Y-145753371D01*
X112446115Y-145753371D02*
X112350877Y-145705752D01*
X112350877Y-145705752D02*
X112160401Y-145705752D01*
X112160401Y-145705752D02*
X112065163Y-145753371D01*
X112065163Y-145753371D02*
X112017544Y-145848609D01*
X112017544Y-145848609D02*
X112017544Y-145943847D01*
X112017544Y-145943847D02*
X112493734Y-146039085D01*
X111636591Y-146324800D02*
X111541353Y-146372419D01*
X111541353Y-146372419D02*
X111350877Y-146372419D01*
X111350877Y-146372419D02*
X111255639Y-146324800D01*
X111255639Y-146324800D02*
X111208020Y-146229561D01*
X111208020Y-146229561D02*
X111208020Y-146181942D01*
X111208020Y-146181942D02*
X111255639Y-146086704D01*
X111255639Y-146086704D02*
X111350877Y-146039085D01*
X111350877Y-146039085D02*
X111493734Y-146039085D01*
X111493734Y-146039085D02*
X111588972Y-145991466D01*
X111588972Y-145991466D02*
X111636591Y-145896228D01*
X111636591Y-145896228D02*
X111636591Y-145848609D01*
X111636591Y-145848609D02*
X111588972Y-145753371D01*
X111588972Y-145753371D02*
X111493734Y-145705752D01*
X111493734Y-145705752D02*
X111350877Y-145705752D01*
X111350877Y-145705752D02*
X111255639Y-145753371D01*
X110779448Y-146372419D02*
X110779448Y-145705752D01*
X110779448Y-145372419D02*
X110827067Y-145420038D01*
X110827067Y-145420038D02*
X110779448Y-145467657D01*
X110779448Y-145467657D02*
X110731829Y-145420038D01*
X110731829Y-145420038D02*
X110779448Y-145372419D01*
X110779448Y-145372419D02*
X110779448Y-145467657D01*
X109874687Y-145705752D02*
X109874687Y-146515276D01*
X109874687Y-146515276D02*
X109922306Y-146610514D01*
X109922306Y-146610514D02*
X109969925Y-146658133D01*
X109969925Y-146658133D02*
X110065163Y-146705752D01*
X110065163Y-146705752D02*
X110208020Y-146705752D01*
X110208020Y-146705752D02*
X110303258Y-146658133D01*
X109874687Y-146324800D02*
X109969925Y-146372419D01*
X109969925Y-146372419D02*
X110160401Y-146372419D01*
X110160401Y-146372419D02*
X110255639Y-146324800D01*
X110255639Y-146324800D02*
X110303258Y-146277180D01*
X110303258Y-146277180D02*
X110350877Y-146181942D01*
X110350877Y-146181942D02*
X110350877Y-145896228D01*
X110350877Y-145896228D02*
X110303258Y-145800990D01*
X110303258Y-145800990D02*
X110255639Y-145753371D01*
X110255639Y-145753371D02*
X110160401Y-145705752D01*
X110160401Y-145705752D02*
X109969925Y-145705752D01*
X109969925Y-145705752D02*
X109874687Y-145753371D01*
X109398496Y-145705752D02*
X109398496Y-146372419D01*
X109398496Y-145800990D02*
X109350877Y-145753371D01*
X109350877Y-145753371D02*
X109255639Y-145705752D01*
X109255639Y-145705752D02*
X109112782Y-145705752D01*
X109112782Y-145705752D02*
X109017544Y-145753371D01*
X109017544Y-145753371D02*
X108969925Y-145848609D01*
X108969925Y-145848609D02*
X108969925Y-146372419D01*
X107731829Y-146372419D02*
X107731829Y-145372419D01*
X107731829Y-145753371D02*
X107636591Y-145705752D01*
X107636591Y-145705752D02*
X107446115Y-145705752D01*
X107446115Y-145705752D02*
X107350877Y-145753371D01*
X107350877Y-145753371D02*
X107303258Y-145800990D01*
X107303258Y-145800990D02*
X107255639Y-145896228D01*
X107255639Y-145896228D02*
X107255639Y-146181942D01*
X107255639Y-146181942D02*
X107303258Y-146277180D01*
X107303258Y-146277180D02*
X107350877Y-146324800D01*
X107350877Y-146324800D02*
X107446115Y-146372419D01*
X107446115Y-146372419D02*
X107636591Y-146372419D01*
X107636591Y-146372419D02*
X107731829Y-146324800D01*
X106922305Y-145705752D02*
X106684210Y-146372419D01*
X106446115Y-145705752D02*
X106684210Y-146372419D01*
X106684210Y-146372419D02*
X106779448Y-146610514D01*
X106779448Y-146610514D02*
X106827067Y-146658133D01*
X106827067Y-146658133D02*
X106922305Y-146705752D01*
X104969924Y-145848609D02*
X104827067Y-145896228D01*
X104827067Y-145896228D02*
X104779448Y-145943847D01*
X104779448Y-145943847D02*
X104731829Y-146039085D01*
X104731829Y-146039085D02*
X104731829Y-146181942D01*
X104731829Y-146181942D02*
X104779448Y-146277180D01*
X104779448Y-146277180D02*
X104827067Y-146324800D01*
X104827067Y-146324800D02*
X104922305Y-146372419D01*
X104922305Y-146372419D02*
X105303257Y-146372419D01*
X105303257Y-146372419D02*
X105303257Y-145372419D01*
X105303257Y-145372419D02*
X104969924Y-145372419D01*
X104969924Y-145372419D02*
X104874686Y-145420038D01*
X104874686Y-145420038D02*
X104827067Y-145467657D01*
X104827067Y-145467657D02*
X104779448Y-145562895D01*
X104779448Y-145562895D02*
X104779448Y-145658133D01*
X104779448Y-145658133D02*
X104827067Y-145753371D01*
X104827067Y-145753371D02*
X104874686Y-145800990D01*
X104874686Y-145800990D02*
X104969924Y-145848609D01*
X104969924Y-145848609D02*
X105303257Y-145848609D01*
X104303257Y-146372419D02*
X104303257Y-145372419D01*
X104303257Y-145372419D02*
X103969924Y-146086704D01*
X103969924Y-146086704D02*
X103636591Y-145372419D01*
X103636591Y-145372419D02*
X103636591Y-146372419D01*
X103303257Y-145372419D02*
X102731829Y-145372419D01*
X103017543Y-146372419D02*
X103017543Y-145372419D01*
X101779447Y-145705752D02*
X101398495Y-145705752D01*
X101636590Y-145372419D02*
X101636590Y-146229561D01*
X101636590Y-146229561D02*
X101588971Y-146324800D01*
X101588971Y-146324800D02*
X101493733Y-146372419D01*
X101493733Y-146372419D02*
X101398495Y-146372419D01*
X100684209Y-146324800D02*
X100779447Y-146372419D01*
X100779447Y-146372419D02*
X100969923Y-146372419D01*
X100969923Y-146372419D02*
X101065161Y-146324800D01*
X101065161Y-146324800D02*
X101112780Y-146229561D01*
X101112780Y-146229561D02*
X101112780Y-145848609D01*
X101112780Y-145848609D02*
X101065161Y-145753371D01*
X101065161Y-145753371D02*
X100969923Y-145705752D01*
X100969923Y-145705752D02*
X100779447Y-145705752D01*
X100779447Y-145705752D02*
X100684209Y-145753371D01*
X100684209Y-145753371D02*
X100636590Y-145848609D01*
X100636590Y-145848609D02*
X100636590Y-145943847D01*
X100636590Y-145943847D02*
X101112780Y-146039085D01*
X99779447Y-146372419D02*
X99779447Y-145848609D01*
X99779447Y-145848609D02*
X99827066Y-145753371D01*
X99827066Y-145753371D02*
X99922304Y-145705752D01*
X99922304Y-145705752D02*
X100112780Y-145705752D01*
X100112780Y-145705752D02*
X100208018Y-145753371D01*
X99779447Y-146324800D02*
X99874685Y-146372419D01*
X99874685Y-146372419D02*
X100112780Y-146372419D01*
X100112780Y-146372419D02*
X100208018Y-146324800D01*
X100208018Y-146324800D02*
X100255637Y-146229561D01*
X100255637Y-146229561D02*
X100255637Y-146134323D01*
X100255637Y-146134323D02*
X100208018Y-146039085D01*
X100208018Y-146039085D02*
X100112780Y-145991466D01*
X100112780Y-145991466D02*
X99874685Y-145991466D01*
X99874685Y-145991466D02*
X99779447Y-145943847D01*
X99303256Y-146372419D02*
X99303256Y-145705752D01*
X99303256Y-145800990D02*
X99255637Y-145753371D01*
X99255637Y-145753371D02*
X99160399Y-145705752D01*
X99160399Y-145705752D02*
X99017542Y-145705752D01*
X99017542Y-145705752D02*
X98922304Y-145753371D01*
X98922304Y-145753371D02*
X98874685Y-145848609D01*
X98874685Y-145848609D02*
X98874685Y-146372419D01*
X98874685Y-145848609D02*
X98827066Y-145753371D01*
X98827066Y-145753371D02*
X98731828Y-145705752D01*
X98731828Y-145705752D02*
X98588971Y-145705752D01*
X98588971Y-145705752D02*
X98493732Y-145753371D01*
X98493732Y-145753371D02*
X98446113Y-145848609D01*
X98446113Y-145848609D02*
X98446113Y-146372419D01*
D11*
X149991666Y-99779819D02*
X150324999Y-99303628D01*
X150563094Y-99779819D02*
X150563094Y-98779819D01*
X150563094Y-98779819D02*
X150182142Y-98779819D01*
X150182142Y-98779819D02*
X150086904Y-98827438D01*
X150086904Y-98827438D02*
X150039285Y-98875057D01*
X150039285Y-98875057D02*
X149991666Y-98970295D01*
X149991666Y-98970295D02*
X149991666Y-99113152D01*
X149991666Y-99113152D02*
X150039285Y-99208390D01*
X150039285Y-99208390D02*
X150086904Y-99256009D01*
X150086904Y-99256009D02*
X150182142Y-99303628D01*
X150182142Y-99303628D02*
X150563094Y-99303628D01*
X149420237Y-99208390D02*
X149515475Y-99160771D01*
X149515475Y-99160771D02*
X149563094Y-99113152D01*
X149563094Y-99113152D02*
X149610713Y-99017914D01*
X149610713Y-99017914D02*
X149610713Y-98970295D01*
X149610713Y-98970295D02*
X149563094Y-98875057D01*
X149563094Y-98875057D02*
X149515475Y-98827438D01*
X149515475Y-98827438D02*
X149420237Y-98779819D01*
X149420237Y-98779819D02*
X149229761Y-98779819D01*
X149229761Y-98779819D02*
X149134523Y-98827438D01*
X149134523Y-98827438D02*
X149086904Y-98875057D01*
X149086904Y-98875057D02*
X149039285Y-98970295D01*
X149039285Y-98970295D02*
X149039285Y-99017914D01*
X149039285Y-99017914D02*
X149086904Y-99113152D01*
X149086904Y-99113152D02*
X149134523Y-99160771D01*
X149134523Y-99160771D02*
X149229761Y-99208390D01*
X149229761Y-99208390D02*
X149420237Y-99208390D01*
X149420237Y-99208390D02*
X149515475Y-99256009D01*
X149515475Y-99256009D02*
X149563094Y-99303628D01*
X149563094Y-99303628D02*
X149610713Y-99398866D01*
X149610713Y-99398866D02*
X149610713Y-99589342D01*
X149610713Y-99589342D02*
X149563094Y-99684580D01*
X149563094Y-99684580D02*
X149515475Y-99732200D01*
X149515475Y-99732200D02*
X149420237Y-99779819D01*
X149420237Y-99779819D02*
X149229761Y-99779819D01*
X149229761Y-99779819D02*
X149134523Y-99732200D01*
X149134523Y-99732200D02*
X149086904Y-99684580D01*
X149086904Y-99684580D02*
X149039285Y-99589342D01*
X149039285Y-99589342D02*
X149039285Y-99398866D01*
X149039285Y-99398866D02*
X149086904Y-99303628D01*
X149086904Y-99303628D02*
X149134523Y-99256009D01*
X149134523Y-99256009D02*
X149229761Y-99208390D01*
X184441666Y-121384580D02*
X184489285Y-121432200D01*
X184489285Y-121432200D02*
X184632142Y-121479819D01*
X184632142Y-121479819D02*
X184727380Y-121479819D01*
X184727380Y-121479819D02*
X184870237Y-121432200D01*
X184870237Y-121432200D02*
X184965475Y-121336961D01*
X184965475Y-121336961D02*
X185013094Y-121241723D01*
X185013094Y-121241723D02*
X185060713Y-121051247D01*
X185060713Y-121051247D02*
X185060713Y-120908390D01*
X185060713Y-120908390D02*
X185013094Y-120717914D01*
X185013094Y-120717914D02*
X184965475Y-120622676D01*
X184965475Y-120622676D02*
X184870237Y-120527438D01*
X184870237Y-120527438D02*
X184727380Y-120479819D01*
X184727380Y-120479819D02*
X184632142Y-120479819D01*
X184632142Y-120479819D02*
X184489285Y-120527438D01*
X184489285Y-120527438D02*
X184441666Y-120575057D01*
X183584523Y-120479819D02*
X183774999Y-120479819D01*
X183774999Y-120479819D02*
X183870237Y-120527438D01*
X183870237Y-120527438D02*
X183917856Y-120575057D01*
X183917856Y-120575057D02*
X184013094Y-120717914D01*
X184013094Y-120717914D02*
X184060713Y-120908390D01*
X184060713Y-120908390D02*
X184060713Y-121289342D01*
X184060713Y-121289342D02*
X184013094Y-121384580D01*
X184013094Y-121384580D02*
X183965475Y-121432200D01*
X183965475Y-121432200D02*
X183870237Y-121479819D01*
X183870237Y-121479819D02*
X183679761Y-121479819D01*
X183679761Y-121479819D02*
X183584523Y-121432200D01*
X183584523Y-121432200D02*
X183536904Y-121384580D01*
X183536904Y-121384580D02*
X183489285Y-121289342D01*
X183489285Y-121289342D02*
X183489285Y-121051247D01*
X183489285Y-121051247D02*
X183536904Y-120956009D01*
X183536904Y-120956009D02*
X183584523Y-120908390D01*
X183584523Y-120908390D02*
X183679761Y-120860771D01*
X183679761Y-120860771D02*
X183870237Y-120860771D01*
X183870237Y-120860771D02*
X183965475Y-120908390D01*
X183965475Y-120908390D02*
X184013094Y-120956009D01*
X184013094Y-120956009D02*
X184060713Y-121051247D01*
X156738559Y-115338193D02*
X157549243Y-115338193D01*
X157549243Y-115338193D02*
X157644617Y-115385880D01*
X157644617Y-115385880D02*
X157692305Y-115433568D01*
X157692305Y-115433568D02*
X157739992Y-115528942D01*
X157739992Y-115528942D02*
X157739992Y-115719691D01*
X157739992Y-115719691D02*
X157692305Y-115815066D01*
X157692305Y-115815066D02*
X157644617Y-115862753D01*
X157644617Y-115862753D02*
X157549243Y-115910440D01*
X157549243Y-115910440D02*
X156738559Y-115910440D01*
X156738559Y-116291938D02*
X156738559Y-116959560D01*
X156738559Y-116959560D02*
X157739992Y-116530375D01*
X110570714Y-99256007D02*
X110427857Y-99303626D01*
X110427857Y-99303626D02*
X110380238Y-99351245D01*
X110380238Y-99351245D02*
X110332619Y-99446483D01*
X110332619Y-99446483D02*
X110332619Y-99589340D01*
X110332619Y-99589340D02*
X110380238Y-99684578D01*
X110380238Y-99684578D02*
X110427857Y-99732198D01*
X110427857Y-99732198D02*
X110523095Y-99779817D01*
X110523095Y-99779817D02*
X110904047Y-99779817D01*
X110904047Y-99779817D02*
X110904047Y-98779817D01*
X110904047Y-98779817D02*
X110570714Y-98779817D01*
X110570714Y-98779817D02*
X110475476Y-98827436D01*
X110475476Y-98827436D02*
X110427857Y-98875055D01*
X110427857Y-98875055D02*
X110380238Y-98970293D01*
X110380238Y-98970293D02*
X110380238Y-99065531D01*
X110380238Y-99065531D02*
X110427857Y-99160769D01*
X110427857Y-99160769D02*
X110475476Y-99208388D01*
X110475476Y-99208388D02*
X110570714Y-99256007D01*
X110570714Y-99256007D02*
X110904047Y-99256007D01*
X110046904Y-98779817D02*
X109475476Y-98779817D01*
X109761190Y-99779817D02*
X109761190Y-98779817D01*
X108618333Y-99779817D02*
X109189761Y-99779817D01*
X108904047Y-99779817D02*
X108904047Y-98779817D01*
X108904047Y-98779817D02*
X108999285Y-98922674D01*
X108999285Y-98922674D02*
X109094523Y-99017912D01*
X109094523Y-99017912D02*
X109189761Y-99065531D01*
X105809540Y-78695887D02*
X105398466Y-78284928D01*
X105908767Y-78133140D02*
X104923960Y-77959492D01*
X104923960Y-77959492D02*
X104857808Y-78334657D01*
X104857808Y-78334657D02*
X104888166Y-78436717D01*
X104888166Y-78436717D02*
X104926792Y-78491881D01*
X104926792Y-78491881D02*
X105012314Y-78555315D01*
X105012314Y-78555315D02*
X105153001Y-78580122D01*
X105153001Y-78580122D02*
X105255061Y-78549764D01*
X105255061Y-78549764D02*
X105310226Y-78511137D01*
X105310226Y-78511137D02*
X105373660Y-78425615D01*
X105373660Y-78425615D02*
X105439811Y-78050450D01*
X105644161Y-79633799D02*
X105743388Y-79071052D01*
X105693774Y-79352426D02*
X104708967Y-79178778D01*
X104708967Y-79178778D02*
X104866191Y-79109793D01*
X104866191Y-79109793D02*
X104976520Y-79032540D01*
X104976520Y-79032540D02*
X105039954Y-78947018D01*
X105561471Y-80102756D02*
X105528395Y-80290338D01*
X105528395Y-80290338D02*
X105464962Y-80375860D01*
X105464962Y-80375860D02*
X105409797Y-80414487D01*
X105409797Y-80414487D02*
X105252572Y-80483471D01*
X105252572Y-80483471D02*
X105056721Y-80497291D01*
X105056721Y-80497291D02*
X104681556Y-80431139D01*
X104681556Y-80431139D02*
X104596034Y-80367706D01*
X104596034Y-80367706D02*
X104557407Y-80312541D01*
X104557407Y-80312541D02*
X104527049Y-80210481D01*
X104527049Y-80210481D02*
X104560125Y-80022899D01*
X104560125Y-80022899D02*
X104623559Y-79937376D01*
X104623559Y-79937376D02*
X104678723Y-79898750D01*
X104678723Y-79898750D02*
X104780784Y-79868392D01*
X104780784Y-79868392D02*
X105015262Y-79909737D01*
X105015262Y-79909737D02*
X105100784Y-79973170D01*
X105100784Y-79973170D02*
X105139411Y-80028335D01*
X105139411Y-80028335D02*
X105169768Y-80130395D01*
X105169768Y-80130395D02*
X105136692Y-80317977D01*
X105136692Y-80317977D02*
X105073259Y-80403500D01*
X105073259Y-80403500D02*
X105018094Y-80442126D01*
X105018094Y-80442126D02*
X104916034Y-80472484D01*
X170029819Y-112488095D02*
X170839342Y-112488095D01*
X170839342Y-112488095D02*
X170934580Y-112535714D01*
X170934580Y-112535714D02*
X170982200Y-112583333D01*
X170982200Y-112583333D02*
X171029819Y-112678571D01*
X171029819Y-112678571D02*
X171029819Y-112869047D01*
X171029819Y-112869047D02*
X170982200Y-112964285D01*
X170982200Y-112964285D02*
X170934580Y-113011904D01*
X170934580Y-113011904D02*
X170839342Y-113059523D01*
X170839342Y-113059523D02*
X170029819Y-113059523D01*
X170029819Y-113964285D02*
X170029819Y-113773809D01*
X170029819Y-113773809D02*
X170077438Y-113678571D01*
X170077438Y-113678571D02*
X170125057Y-113630952D01*
X170125057Y-113630952D02*
X170267914Y-113535714D01*
X170267914Y-113535714D02*
X170458390Y-113488095D01*
X170458390Y-113488095D02*
X170839342Y-113488095D01*
X170839342Y-113488095D02*
X170934580Y-113535714D01*
X170934580Y-113535714D02*
X170982200Y-113583333D01*
X170982200Y-113583333D02*
X171029819Y-113678571D01*
X171029819Y-113678571D02*
X171029819Y-113869047D01*
X171029819Y-113869047D02*
X170982200Y-113964285D01*
X170982200Y-113964285D02*
X170934580Y-114011904D01*
X170934580Y-114011904D02*
X170839342Y-114059523D01*
X170839342Y-114059523D02*
X170601247Y-114059523D01*
X170601247Y-114059523D02*
X170506009Y-114011904D01*
X170506009Y-114011904D02*
X170458390Y-113964285D01*
X170458390Y-113964285D02*
X170410771Y-113869047D01*
X170410771Y-113869047D02*
X170410771Y-113678571D01*
X170410771Y-113678571D02*
X170458390Y-113583333D01*
X170458390Y-113583333D02*
X170506009Y-113535714D01*
X170506009Y-113535714D02*
X170601247Y-113488095D01*
X202454380Y-128261797D02*
X202382677Y-128129379D01*
X202382677Y-128129379D02*
X202327513Y-128090753D01*
X202327513Y-128090753D02*
X202225453Y-128060395D01*
X202225453Y-128060395D02*
X202084766Y-128085202D01*
X202084766Y-128085202D02*
X201999243Y-128148635D01*
X201999243Y-128148635D02*
X201960617Y-128203800D01*
X201960617Y-128203800D02*
X201930259Y-128305860D01*
X201930259Y-128305860D02*
X201996411Y-128681025D01*
X201996411Y-128681025D02*
X202981219Y-128507377D01*
X202981219Y-128507377D02*
X202923336Y-128179107D01*
X202923336Y-128179107D02*
X202859902Y-128093585D01*
X202859902Y-128093585D02*
X202804738Y-128054959D01*
X202804738Y-128054959D02*
X202702678Y-128024601D01*
X202702678Y-128024601D02*
X202608886Y-128041139D01*
X202608886Y-128041139D02*
X202523364Y-128104572D01*
X202523364Y-128104572D02*
X202484737Y-128159737D01*
X202484737Y-128159737D02*
X202454380Y-128261797D01*
X202454380Y-128261797D02*
X202512262Y-128590066D01*
X202832377Y-127663256D02*
X202733150Y-127100509D01*
X201797956Y-127555530D02*
X202782763Y-127381882D01*
X202589745Y-126835673D02*
X202628371Y-126780508D01*
X202628371Y-126780508D02*
X202658729Y-126678448D01*
X202658729Y-126678448D02*
X202617384Y-126443970D01*
X202617384Y-126443970D02*
X202553951Y-126358448D01*
X202553951Y-126358448D02*
X202498786Y-126319821D01*
X202498786Y-126319821D02*
X202396726Y-126289463D01*
X202396726Y-126289463D02*
X202302935Y-126306001D01*
X202302935Y-126306001D02*
X202170517Y-126377704D01*
X202170517Y-126377704D02*
X201706997Y-127039678D01*
X201706997Y-127039678D02*
X201599501Y-126430036D01*
X128516666Y-107609580D02*
X128564285Y-107657200D01*
X128564285Y-107657200D02*
X128707142Y-107704819D01*
X128707142Y-107704819D02*
X128802380Y-107704819D01*
X128802380Y-107704819D02*
X128945237Y-107657200D01*
X128945237Y-107657200D02*
X129040475Y-107561961D01*
X129040475Y-107561961D02*
X129088094Y-107466723D01*
X129088094Y-107466723D02*
X129135713Y-107276247D01*
X129135713Y-107276247D02*
X129135713Y-107133390D01*
X129135713Y-107133390D02*
X129088094Y-106942914D01*
X129088094Y-106942914D02*
X129040475Y-106847676D01*
X129040475Y-106847676D02*
X128945237Y-106752438D01*
X128945237Y-106752438D02*
X128802380Y-106704819D01*
X128802380Y-106704819D02*
X128707142Y-106704819D01*
X128707142Y-106704819D02*
X128564285Y-106752438D01*
X128564285Y-106752438D02*
X128516666Y-106800057D01*
X127611904Y-106704819D02*
X128088094Y-106704819D01*
X128088094Y-106704819D02*
X128135713Y-107181009D01*
X128135713Y-107181009D02*
X128088094Y-107133390D01*
X128088094Y-107133390D02*
X127992856Y-107085771D01*
X127992856Y-107085771D02*
X127754761Y-107085771D01*
X127754761Y-107085771D02*
X127659523Y-107133390D01*
X127659523Y-107133390D02*
X127611904Y-107181009D01*
X127611904Y-107181009D02*
X127564285Y-107276247D01*
X127564285Y-107276247D02*
X127564285Y-107514342D01*
X127564285Y-107514342D02*
X127611904Y-107609580D01*
X127611904Y-107609580D02*
X127659523Y-107657200D01*
X127659523Y-107657200D02*
X127754761Y-107704819D01*
X127754761Y-107704819D02*
X127992856Y-107704819D01*
X127992856Y-107704819D02*
X128088094Y-107657200D01*
X128088094Y-107657200D02*
X128135713Y-107609580D01*
X157738094Y-126704819D02*
X157738094Y-125704819D01*
X157738094Y-125704819D02*
X157499999Y-125704819D01*
X157499999Y-125704819D02*
X157357142Y-125752438D01*
X157357142Y-125752438D02*
X157261904Y-125847676D01*
X157261904Y-125847676D02*
X157214285Y-125942914D01*
X157214285Y-125942914D02*
X157166666Y-126133390D01*
X157166666Y-126133390D02*
X157166666Y-126276247D01*
X157166666Y-126276247D02*
X157214285Y-126466723D01*
X157214285Y-126466723D02*
X157261904Y-126561961D01*
X157261904Y-126561961D02*
X157357142Y-126657200D01*
X157357142Y-126657200D02*
X157499999Y-126704819D01*
X157499999Y-126704819D02*
X157738094Y-126704819D01*
X156595237Y-126133390D02*
X156690475Y-126085771D01*
X156690475Y-126085771D02*
X156738094Y-126038152D01*
X156738094Y-126038152D02*
X156785713Y-125942914D01*
X156785713Y-125942914D02*
X156785713Y-125895295D01*
X156785713Y-125895295D02*
X156738094Y-125800057D01*
X156738094Y-125800057D02*
X156690475Y-125752438D01*
X156690475Y-125752438D02*
X156595237Y-125704819D01*
X156595237Y-125704819D02*
X156404761Y-125704819D01*
X156404761Y-125704819D02*
X156309523Y-125752438D01*
X156309523Y-125752438D02*
X156261904Y-125800057D01*
X156261904Y-125800057D02*
X156214285Y-125895295D01*
X156214285Y-125895295D02*
X156214285Y-125942914D01*
X156214285Y-125942914D02*
X156261904Y-126038152D01*
X156261904Y-126038152D02*
X156309523Y-126085771D01*
X156309523Y-126085771D02*
X156404761Y-126133390D01*
X156404761Y-126133390D02*
X156595237Y-126133390D01*
X156595237Y-126133390D02*
X156690475Y-126181009D01*
X156690475Y-126181009D02*
X156738094Y-126228628D01*
X156738094Y-126228628D02*
X156785713Y-126323866D01*
X156785713Y-126323866D02*
X156785713Y-126514342D01*
X156785713Y-126514342D02*
X156738094Y-126609580D01*
X156738094Y-126609580D02*
X156690475Y-126657200D01*
X156690475Y-126657200D02*
X156595237Y-126704819D01*
X156595237Y-126704819D02*
X156404761Y-126704819D01*
X156404761Y-126704819D02*
X156309523Y-126657200D01*
X156309523Y-126657200D02*
X156261904Y-126609580D01*
X156261904Y-126609580D02*
X156214285Y-126514342D01*
X156214285Y-126514342D02*
X156214285Y-126323866D01*
X156214285Y-126323866D02*
X156261904Y-126228628D01*
X156261904Y-126228628D02*
X156309523Y-126181009D01*
X156309523Y-126181009D02*
X156404761Y-126133390D01*
X116934166Y-134634580D02*
X116981785Y-134682200D01*
X116981785Y-134682200D02*
X117124642Y-134729819D01*
X117124642Y-134729819D02*
X117219880Y-134729819D01*
X117219880Y-134729819D02*
X117362737Y-134682200D01*
X117362737Y-134682200D02*
X117457975Y-134586961D01*
X117457975Y-134586961D02*
X117505594Y-134491723D01*
X117505594Y-134491723D02*
X117553213Y-134301247D01*
X117553213Y-134301247D02*
X117553213Y-134158390D01*
X117553213Y-134158390D02*
X117505594Y-133967914D01*
X117505594Y-133967914D02*
X117457975Y-133872676D01*
X117457975Y-133872676D02*
X117362737Y-133777438D01*
X117362737Y-133777438D02*
X117219880Y-133729819D01*
X117219880Y-133729819D02*
X117124642Y-133729819D01*
X117124642Y-133729819D02*
X116981785Y-133777438D01*
X116981785Y-133777438D02*
X116934166Y-133825057D01*
X116457975Y-134729819D02*
X116267499Y-134729819D01*
X116267499Y-134729819D02*
X116172261Y-134682200D01*
X116172261Y-134682200D02*
X116124642Y-134634580D01*
X116124642Y-134634580D02*
X116029404Y-134491723D01*
X116029404Y-134491723D02*
X115981785Y-134301247D01*
X115981785Y-134301247D02*
X115981785Y-133920295D01*
X115981785Y-133920295D02*
X116029404Y-133825057D01*
X116029404Y-133825057D02*
X116077023Y-133777438D01*
X116077023Y-133777438D02*
X116172261Y-133729819D01*
X116172261Y-133729819D02*
X116362737Y-133729819D01*
X116362737Y-133729819D02*
X116457975Y-133777438D01*
X116457975Y-133777438D02*
X116505594Y-133825057D01*
X116505594Y-133825057D02*
X116553213Y-133920295D01*
X116553213Y-133920295D02*
X116553213Y-134158390D01*
X116553213Y-134158390D02*
X116505594Y-134253628D01*
X116505594Y-134253628D02*
X116457975Y-134301247D01*
X116457975Y-134301247D02*
X116362737Y-134348866D01*
X116362737Y-134348866D02*
X116172261Y-134348866D01*
X116172261Y-134348866D02*
X116077023Y-134301247D01*
X116077023Y-134301247D02*
X116029404Y-134253628D01*
X116029404Y-134253628D02*
X115981785Y-134158390D01*
X156416666Y-99704819D02*
X156749999Y-99228628D01*
X156988094Y-99704819D02*
X156988094Y-98704819D01*
X156988094Y-98704819D02*
X156607142Y-98704819D01*
X156607142Y-98704819D02*
X156511904Y-98752438D01*
X156511904Y-98752438D02*
X156464285Y-98800057D01*
X156464285Y-98800057D02*
X156416666Y-98895295D01*
X156416666Y-98895295D02*
X156416666Y-99038152D01*
X156416666Y-99038152D02*
X156464285Y-99133390D01*
X156464285Y-99133390D02*
X156511904Y-99181009D01*
X156511904Y-99181009D02*
X156607142Y-99228628D01*
X156607142Y-99228628D02*
X156988094Y-99228628D01*
X155511904Y-98704819D02*
X155988094Y-98704819D01*
X155988094Y-98704819D02*
X156035713Y-99181009D01*
X156035713Y-99181009D02*
X155988094Y-99133390D01*
X155988094Y-99133390D02*
X155892856Y-99085771D01*
X155892856Y-99085771D02*
X155654761Y-99085771D01*
X155654761Y-99085771D02*
X155559523Y-99133390D01*
X155559523Y-99133390D02*
X155511904Y-99181009D01*
X155511904Y-99181009D02*
X155464285Y-99276247D01*
X155464285Y-99276247D02*
X155464285Y-99514342D01*
X155464285Y-99514342D02*
X155511904Y-99609580D01*
X155511904Y-99609580D02*
X155559523Y-99657200D01*
X155559523Y-99657200D02*
X155654761Y-99704819D01*
X155654761Y-99704819D02*
X155892856Y-99704819D01*
X155892856Y-99704819D02*
X155988094Y-99657200D01*
X155988094Y-99657200D02*
X156035713Y-99609580D01*
X160666666Y-99454819D02*
X160999999Y-98978628D01*
X161238094Y-99454819D02*
X161238094Y-98454819D01*
X161238094Y-98454819D02*
X160857142Y-98454819D01*
X160857142Y-98454819D02*
X160761904Y-98502438D01*
X160761904Y-98502438D02*
X160714285Y-98550057D01*
X160714285Y-98550057D02*
X160666666Y-98645295D01*
X160666666Y-98645295D02*
X160666666Y-98788152D01*
X160666666Y-98788152D02*
X160714285Y-98883390D01*
X160714285Y-98883390D02*
X160761904Y-98931009D01*
X160761904Y-98931009D02*
X160857142Y-98978628D01*
X160857142Y-98978628D02*
X161238094Y-98978628D01*
X159809523Y-98454819D02*
X159999999Y-98454819D01*
X159999999Y-98454819D02*
X160095237Y-98502438D01*
X160095237Y-98502438D02*
X160142856Y-98550057D01*
X160142856Y-98550057D02*
X160238094Y-98692914D01*
X160238094Y-98692914D02*
X160285713Y-98883390D01*
X160285713Y-98883390D02*
X160285713Y-99264342D01*
X160285713Y-99264342D02*
X160238094Y-99359580D01*
X160238094Y-99359580D02*
X160190475Y-99407200D01*
X160190475Y-99407200D02*
X160095237Y-99454819D01*
X160095237Y-99454819D02*
X159904761Y-99454819D01*
X159904761Y-99454819D02*
X159809523Y-99407200D01*
X159809523Y-99407200D02*
X159761904Y-99359580D01*
X159761904Y-99359580D02*
X159714285Y-99264342D01*
X159714285Y-99264342D02*
X159714285Y-99026247D01*
X159714285Y-99026247D02*
X159761904Y-98931009D01*
X159761904Y-98931009D02*
X159809523Y-98883390D01*
X159809523Y-98883390D02*
X159904761Y-98835771D01*
X159904761Y-98835771D02*
X160095237Y-98835771D01*
X160095237Y-98835771D02*
X160190475Y-98883390D01*
X160190475Y-98883390D02*
X160238094Y-98931009D01*
X160238094Y-98931009D02*
X160285713Y-99026247D01*
D12*
%TO.C,R8*%
X150052064Y-100240000D02*
X149597936Y-100240000D01*
X150052064Y-101710000D02*
X149597936Y-101710000D01*
%TO.C,C6*%
X177425000Y-117485000D02*
X178675000Y-117485000D01*
X178050000Y-118110000D02*
X178050000Y-116860000D01*
X178915000Y-110429437D02*
X178915000Y-113215000D01*
X178915000Y-110429437D02*
X179979437Y-109365000D01*
X178915000Y-119020563D02*
X178915000Y-116235000D01*
X178915000Y-119020563D02*
X179979437Y-120085000D01*
X179979437Y-109365000D02*
X189635000Y-109365000D01*
X179979437Y-120085000D02*
X189635000Y-120085000D01*
X189635000Y-109365000D02*
X189635000Y-113215000D01*
X189635000Y-120085000D02*
X189635000Y-116235000D01*
D13*
%TO.C,G\u002A\u002A\u002A*%
G36*
X91785436Y-140805922D02*
G01*
X92973225Y-140808638D01*
X92973225Y-141134279D01*
X92973225Y-141459920D01*
X92564839Y-141462716D01*
X92156453Y-141465512D01*
X92156453Y-142164713D01*
X92156431Y-142213710D01*
X92156198Y-142331331D01*
X92155726Y-142441730D01*
X92155037Y-142543140D01*
X92154155Y-142633794D01*
X92153101Y-142711927D01*
X92151897Y-142775771D01*
X92150567Y-142823562D01*
X92149132Y-142853531D01*
X92147615Y-142863913D01*
X92147138Y-142863841D01*
X92133065Y-142858627D01*
X92102419Y-142845981D01*
X92057788Y-142827033D01*
X92001760Y-142802914D01*
X91936924Y-142774755D01*
X91865866Y-142743688D01*
X91791176Y-142710842D01*
X91715440Y-142677350D01*
X91641247Y-142644342D01*
X91571184Y-142612949D01*
X91507840Y-142584303D01*
X91387727Y-142529661D01*
X91387727Y-141997460D01*
X91387727Y-141465258D01*
X90992687Y-141465258D01*
X90597647Y-141465258D01*
X90597647Y-141134233D01*
X90597647Y-140803207D01*
X91785436Y-140805922D01*
G37*
G36*
X98904162Y-142207293D02*
G01*
X98904162Y-142741581D01*
X98904162Y-143611286D01*
X98074045Y-143611223D01*
X98003045Y-143611211D01*
X97847103Y-143611098D01*
X97710300Y-143610803D01*
X97591073Y-143610243D01*
X97487860Y-143609338D01*
X97399097Y-143608005D01*
X97323220Y-143606163D01*
X97258669Y-143603731D01*
X97203878Y-143600627D01*
X97157286Y-143596770D01*
X97117329Y-143592077D01*
X97082445Y-143586468D01*
X97051070Y-143579861D01*
X97021641Y-143572174D01*
X96992596Y-143563327D01*
X96962371Y-143553236D01*
X96854967Y-143508128D01*
X96749102Y-143443732D01*
X96658014Y-143365226D01*
X96582767Y-143273715D01*
X96524422Y-143170304D01*
X96484042Y-143056095D01*
X96476391Y-143017772D01*
X96469127Y-142953141D01*
X96465257Y-142878816D01*
X96464784Y-142800952D01*
X96466861Y-142747612D01*
X97144618Y-142747612D01*
X97152400Y-142817976D01*
X97174074Y-142871585D01*
X97216344Y-142925447D01*
X97275957Y-142971383D01*
X97318664Y-142997373D01*
X97753742Y-143000492D01*
X98188820Y-143003612D01*
X98188820Y-142741581D01*
X98188820Y-142479550D01*
X97784445Y-142479550D01*
X97686140Y-142479611D01*
X97593246Y-142479973D01*
X97517370Y-142480891D01*
X97456215Y-142482615D01*
X97407481Y-142485399D01*
X97368870Y-142489493D01*
X97338081Y-142495150D01*
X97312818Y-142502622D01*
X97290780Y-142512161D01*
X97269669Y-142524019D01*
X97247186Y-142538448D01*
X97216003Y-142564219D01*
X97177964Y-142616179D01*
X97153654Y-142678828D01*
X97144618Y-142747612D01*
X96466861Y-142747612D01*
X96467714Y-142725703D01*
X96474048Y-142659225D01*
X96483790Y-142607671D01*
X96502945Y-142546658D01*
X96540052Y-142464010D01*
X96590039Y-142388277D01*
X96656705Y-142312979D01*
X96700136Y-142270802D01*
X96740957Y-142236646D01*
X96781825Y-142209682D01*
X96829556Y-142184858D01*
X96849014Y-142175407D01*
X96884018Y-142157301D01*
X96908352Y-142143161D01*
X96917639Y-142135442D01*
X96916520Y-142132820D01*
X96902767Y-142121273D01*
X96878248Y-142106716D01*
X96838239Y-142083716D01*
X96753816Y-142018391D01*
X96684355Y-141938774D01*
X96630500Y-141846127D01*
X96592899Y-141741712D01*
X96576756Y-141652102D01*
X97281295Y-141652102D01*
X97286013Y-141703106D01*
X97306833Y-141761893D01*
X97319561Y-141785580D01*
X97344721Y-141821088D01*
X97375807Y-141846904D01*
X97420285Y-141870154D01*
X97426106Y-141872727D01*
X97440268Y-141878117D01*
X97456419Y-141882394D01*
X97476978Y-141885688D01*
X97504367Y-141888129D01*
X97541007Y-141889847D01*
X97589317Y-141890973D01*
X97651719Y-141891636D01*
X97730633Y-141891966D01*
X97828479Y-141892094D01*
X98188820Y-141892329D01*
X98188820Y-141657440D01*
X98188820Y-141422551D01*
X97820129Y-141422551D01*
X97809116Y-141422552D01*
X97705937Y-141422705D01*
X97621615Y-141423296D01*
X97553871Y-141424574D01*
X97500430Y-141426788D01*
X97459014Y-141430188D01*
X97427345Y-141435021D01*
X97403146Y-141441537D01*
X97384141Y-141449985D01*
X97368051Y-141460614D01*
X97352600Y-141473673D01*
X97334646Y-141493556D01*
X97307192Y-141540877D01*
X97288316Y-141596460D01*
X97281295Y-141652102D01*
X96576756Y-141652102D01*
X96572196Y-141626792D01*
X96569038Y-141502627D01*
X96574399Y-141431336D01*
X96593238Y-141322153D01*
X96625334Y-141225926D01*
X96671893Y-141139418D01*
X96734121Y-141059391D01*
X96771795Y-141020559D01*
X96851313Y-140955211D01*
X96940842Y-140902935D01*
X97043671Y-140861977D01*
X97163085Y-140830584D01*
X97292312Y-140803300D01*
X98098237Y-140803300D01*
X98904162Y-140803300D01*
X98904162Y-141657440D01*
X98904162Y-142207293D01*
G37*
G36*
X93711702Y-140805865D02*
G01*
X94220629Y-140808638D01*
X94239498Y-140867360D01*
X94245311Y-140885442D01*
X94265978Y-140949633D01*
X94291618Y-141029164D01*
X94321037Y-141120345D01*
X94353044Y-141219487D01*
X94386447Y-141322899D01*
X94420055Y-141426892D01*
X94452674Y-141527777D01*
X94483114Y-141621864D01*
X94510181Y-141705463D01*
X94532685Y-141774884D01*
X94538285Y-141792157D01*
X94564645Y-141873706D01*
X94591902Y-141958381D01*
X94618176Y-142040325D01*
X94641589Y-142113682D01*
X94660262Y-142172593D01*
X94670256Y-142203756D01*
X94687106Y-142253794D01*
X94701635Y-142293849D01*
X94712552Y-142320438D01*
X94718568Y-142330076D01*
X94726398Y-142321944D01*
X94733940Y-142300715D01*
X94738071Y-142284523D01*
X94747011Y-142253084D01*
X94760601Y-142207615D01*
X94779226Y-142146859D01*
X94803272Y-142069558D01*
X94833127Y-141974457D01*
X94869174Y-141860298D01*
X94882068Y-141819520D01*
X94909519Y-141732536D01*
X94938819Y-141639525D01*
X94967199Y-141549281D01*
X94991889Y-141470597D01*
X94993612Y-141465099D01*
X95016510Y-141392297D01*
X95043576Y-141306616D01*
X95072640Y-141214912D01*
X95101527Y-141124041D01*
X95128066Y-141040857D01*
X95204034Y-140803300D01*
X95714165Y-140803300D01*
X96224297Y-140803300D01*
X96224297Y-142207293D01*
X96224297Y-143611286D01*
X95893317Y-143611286D01*
X95562338Y-143611286D01*
X95561231Y-142984027D01*
X95561157Y-142940091D01*
X95560973Y-142810927D01*
X95560831Y-142678681D01*
X95560732Y-142546843D01*
X95560677Y-142418905D01*
X95560667Y-142298356D01*
X95560704Y-142188687D01*
X95560787Y-142093391D01*
X95560920Y-142015957D01*
X95560945Y-141966944D01*
X95560588Y-141888874D01*
X95559776Y-141819990D01*
X95558566Y-141762725D01*
X95557016Y-141719512D01*
X95555184Y-141692785D01*
X95553125Y-141684977D01*
X95551476Y-141688130D01*
X95543410Y-141708680D01*
X95529990Y-141745842D01*
X95512098Y-141797074D01*
X95490615Y-141859834D01*
X95466424Y-141931581D01*
X95440408Y-142009773D01*
X95431848Y-142035646D01*
X95404946Y-142116716D01*
X95379342Y-142193532D01*
X95356111Y-142262887D01*
X95336329Y-142321577D01*
X95321072Y-142366395D01*
X95311417Y-142394136D01*
X95307202Y-142406219D01*
X95295440Y-142440834D01*
X95278148Y-142492319D01*
X95256029Y-142558563D01*
X95229782Y-142637461D01*
X95200109Y-142726902D01*
X95167711Y-142824780D01*
X95133288Y-142928985D01*
X95097542Y-143037411D01*
X94908531Y-143611286D01*
X94729234Y-143611286D01*
X94549938Y-143611286D01*
X94512474Y-143501849D01*
X94504687Y-143479117D01*
X94485207Y-143422321D01*
X94462164Y-143355207D01*
X94437809Y-143284331D01*
X94414394Y-143216246D01*
X94405674Y-143190896D01*
X94378072Y-143110581D01*
X94347789Y-143022388D01*
X94317934Y-142935368D01*
X94291614Y-142858575D01*
X94282315Y-142831480D01*
X94254428Y-142750701D01*
X94224199Y-142663690D01*
X94194696Y-142579264D01*
X94168989Y-142506242D01*
X94156762Y-142471597D01*
X94134429Y-142407858D01*
X94113577Y-142347809D01*
X94096103Y-142296923D01*
X94083904Y-142260677D01*
X94076106Y-142237422D01*
X94059855Y-142189990D01*
X94039071Y-142130057D01*
X94015328Y-142062103D01*
X93990204Y-141990610D01*
X93965275Y-141920059D01*
X93942115Y-141854931D01*
X93922303Y-141799708D01*
X93907412Y-141758869D01*
X93906892Y-141757467D01*
X93903547Y-141748953D01*
X93900613Y-141743342D01*
X93898061Y-141741864D01*
X93895863Y-141745748D01*
X93893991Y-141756224D01*
X93892416Y-141774524D01*
X93891111Y-141801876D01*
X93890048Y-141839511D01*
X93889198Y-141888660D01*
X93888534Y-141950551D01*
X93888027Y-142026415D01*
X93887649Y-142117483D01*
X93887372Y-142224983D01*
X93887168Y-142350147D01*
X93887010Y-142494205D01*
X93886868Y-142658386D01*
X93886087Y-143611286D01*
X93544431Y-143611286D01*
X93202775Y-143611286D01*
X93202775Y-142207189D01*
X93202775Y-140803093D01*
X93711702Y-140805865D01*
G37*
G36*
X94908853Y-137909940D02*
G01*
X95032595Y-137910181D01*
X95137196Y-137910665D01*
X95224006Y-137911420D01*
X95294376Y-137912474D01*
X95349656Y-137913857D01*
X95391198Y-137915596D01*
X95420352Y-137917722D01*
X95438470Y-137920262D01*
X95446900Y-137923245D01*
X95448590Y-137925228D01*
X95457050Y-137945490D01*
X95468528Y-137984691D01*
X95482651Y-138041145D01*
X95499047Y-138113172D01*
X95517343Y-138199087D01*
X95537165Y-138297208D01*
X95558140Y-138405852D01*
X95579895Y-138523337D01*
X95581388Y-138531536D01*
X95591187Y-138584180D01*
X95600007Y-138629677D01*
X95606932Y-138663399D01*
X95611048Y-138680721D01*
X95614432Y-138686621D01*
X95637087Y-138702148D01*
X95677801Y-138716707D01*
X95751515Y-138738042D01*
X95857441Y-138771084D01*
X95963739Y-138806727D01*
X96066184Y-138843444D01*
X96160551Y-138879706D01*
X96242617Y-138913984D01*
X96308157Y-138944751D01*
X96320751Y-138950963D01*
X96346817Y-138962374D01*
X96361964Y-138966898D01*
X96370173Y-138962549D01*
X96392846Y-138946025D01*
X96426936Y-138919150D01*
X96469903Y-138884033D01*
X96519204Y-138842781D01*
X96572297Y-138797505D01*
X96626640Y-138750313D01*
X96679691Y-138703313D01*
X96711960Y-138674646D01*
X96768352Y-138625601D01*
X96823851Y-138578516D01*
X96875944Y-138535425D01*
X96922118Y-138498366D01*
X96959862Y-138469374D01*
X96986661Y-138450485D01*
X97000004Y-138443737D01*
X97009550Y-138446955D01*
X97035792Y-138461938D01*
X97075295Y-138487886D01*
X97126269Y-138523409D01*
X97186923Y-138567116D01*
X97255467Y-138617616D01*
X97330110Y-138673517D01*
X97409062Y-138733429D01*
X97490532Y-138795960D01*
X97572728Y-138859719D01*
X97653862Y-138923315D01*
X97732142Y-138985357D01*
X97805777Y-139044454D01*
X97872976Y-139099215D01*
X97931950Y-139148248D01*
X97980907Y-139190163D01*
X98018058Y-139223569D01*
X98041610Y-139247074D01*
X98049775Y-139259287D01*
X98048043Y-139265034D01*
X98038239Y-139287762D01*
X98021240Y-139323816D01*
X97998724Y-139369674D01*
X97972368Y-139421814D01*
X97952552Y-139460511D01*
X97916524Y-139530897D01*
X97876717Y-139608698D01*
X97836719Y-139686903D01*
X97800115Y-139758500D01*
X97705022Y-139944557D01*
X97755575Y-140013229D01*
X97781788Y-140050412D01*
X97814628Y-140099591D01*
X97851939Y-140157358D01*
X97892119Y-140221057D01*
X97933569Y-140288032D01*
X97974687Y-140355629D01*
X98013871Y-140421191D01*
X98049521Y-140482063D01*
X98080036Y-140535591D01*
X98103815Y-140579117D01*
X98119256Y-140609988D01*
X98124759Y-140625547D01*
X98124649Y-140625710D01*
X98112321Y-140627260D01*
X98081217Y-140628684D01*
X98033674Y-140629939D01*
X97972032Y-140630986D01*
X97898628Y-140631784D01*
X97815802Y-140632293D01*
X97725892Y-140632472D01*
X97327026Y-140632472D01*
X97289678Y-140576222D01*
X97225497Y-140485268D01*
X97104788Y-140336932D01*
X96966831Y-140191502D01*
X96814149Y-140051567D01*
X96649268Y-139919714D01*
X96633084Y-139907709D01*
X96419256Y-139762113D01*
X96198923Y-139636159D01*
X95970757Y-139529285D01*
X95733435Y-139440931D01*
X95485631Y-139370536D01*
X95226020Y-139317540D01*
X95190505Y-139311782D01*
X95146081Y-139305408D01*
X95103148Y-139300602D01*
X95057898Y-139297155D01*
X95006525Y-139294855D01*
X94945222Y-139293493D01*
X94870181Y-139292857D01*
X94777596Y-139292738D01*
X94739579Y-139292791D01*
X94652079Y-139293264D01*
X94580508Y-139294384D01*
X94520929Y-139296364D01*
X94469408Y-139299414D01*
X94422009Y-139303745D01*
X94374796Y-139309569D01*
X94323834Y-139317098D01*
X94286717Y-139323089D01*
X94046660Y-139372148D01*
X93816872Y-139437965D01*
X93593273Y-139521859D01*
X93371787Y-139625149D01*
X93305618Y-139659771D01*
X93146324Y-139750794D01*
X92999060Y-139847404D01*
X92858931Y-139953198D01*
X92721042Y-140071774D01*
X92580499Y-140206727D01*
X92411986Y-140376229D01*
X92001285Y-140376229D01*
X91981952Y-140376221D01*
X91891953Y-140375940D01*
X91809490Y-140375296D01*
X91736865Y-140374336D01*
X91676381Y-140373103D01*
X91630341Y-140371644D01*
X91601049Y-140370001D01*
X91590807Y-140368222D01*
X91593195Y-140363653D01*
X91606362Y-140343916D01*
X91629474Y-140311107D01*
X91660754Y-140267708D01*
X91698421Y-140216202D01*
X91740698Y-140159069D01*
X91765283Y-140125922D01*
X91808890Y-140066266D01*
X91841194Y-140020435D01*
X91863478Y-139986409D01*
X91877027Y-139962162D01*
X91883128Y-139945672D01*
X91883064Y-139934916D01*
X91876044Y-139917247D01*
X91861716Y-139884674D01*
X91842275Y-139842158D01*
X91819841Y-139794405D01*
X91800633Y-139754030D01*
X91749187Y-139645687D01*
X91706114Y-139554578D01*
X91670739Y-139479204D01*
X91642386Y-139418065D01*
X91620380Y-139369662D01*
X91604046Y-139332496D01*
X91592708Y-139305069D01*
X91585692Y-139285881D01*
X91582322Y-139273434D01*
X91581923Y-139266227D01*
X91586722Y-139258904D01*
X91606565Y-139238575D01*
X91639863Y-139208100D01*
X91684578Y-139169158D01*
X91738673Y-139123431D01*
X91800110Y-139072601D01*
X91866850Y-139018348D01*
X91936858Y-138962353D01*
X92008094Y-138906299D01*
X92078521Y-138851866D01*
X92146102Y-138800735D01*
X92153664Y-138795088D01*
X92262234Y-138714414D01*
X92355193Y-138646242D01*
X92433602Y-138589864D01*
X92498524Y-138544574D01*
X92551019Y-138509663D01*
X92592151Y-138484423D01*
X92622980Y-138468149D01*
X92644569Y-138460131D01*
X92657979Y-138459663D01*
X92672293Y-138468211D01*
X92702706Y-138491714D01*
X92748250Y-138529851D01*
X92808805Y-138582516D01*
X92884251Y-138649603D01*
X92974467Y-138731009D01*
X93079331Y-138826627D01*
X93235135Y-138969290D01*
X93328392Y-138929215D01*
X93352290Y-138919013D01*
X93508356Y-138855547D01*
X93664341Y-138797287D01*
X93814301Y-138746372D01*
X93952289Y-138704937D01*
X93972891Y-138698529D01*
X94004521Y-138684220D01*
X94018598Y-138670014D01*
X94021835Y-138658263D01*
X94027543Y-138634576D01*
X94035104Y-138600412D01*
X94044824Y-138554271D01*
X94057008Y-138494652D01*
X94071961Y-138420056D01*
X94089991Y-138328982D01*
X94111401Y-138219932D01*
X94136498Y-138091404D01*
X94143296Y-138057385D01*
X94155279Y-138003512D01*
X94165865Y-137966155D01*
X94176011Y-137942213D01*
X94186671Y-137928583D01*
X94187112Y-137928216D01*
X94193172Y-137924291D01*
X94202113Y-137920966D01*
X94215615Y-137918194D01*
X94235357Y-137915924D01*
X94263018Y-137914107D01*
X94300278Y-137912693D01*
X94348815Y-137911633D01*
X94410310Y-137910876D01*
X94486441Y-137910374D01*
X94578888Y-137910077D01*
X94689330Y-137909935D01*
X94819446Y-137909899D01*
X94908853Y-137909940D01*
G37*
G36*
X89895970Y-141584810D02*
G01*
X89909465Y-141605499D01*
X89913503Y-141613103D01*
X89937561Y-141652872D01*
X89971435Y-141703495D01*
X90011913Y-141760613D01*
X90055786Y-141819866D01*
X90099841Y-141876897D01*
X90140868Y-141927345D01*
X90175657Y-141966853D01*
X90219601Y-142012394D01*
X90270974Y-142063263D01*
X90322896Y-142112636D01*
X90371579Y-142156989D01*
X90413238Y-142192802D01*
X90444087Y-142216552D01*
X90450873Y-142221204D01*
X90479636Y-142240998D01*
X90517380Y-142267042D01*
X90557762Y-142294959D01*
X90598641Y-142322434D01*
X90706250Y-142388984D01*
X90832235Y-142460027D01*
X90975056Y-142534746D01*
X91133174Y-142612322D01*
X91305050Y-142691939D01*
X91339391Y-142707447D01*
X91531273Y-142795136D01*
X91704840Y-142876464D01*
X91861571Y-142952282D01*
X92002947Y-143023441D01*
X92130450Y-143090791D01*
X92245559Y-143155181D01*
X92349755Y-143217464D01*
X92444519Y-143278489D01*
X92531331Y-143339106D01*
X92611673Y-143400167D01*
X92687025Y-143462522D01*
X92758867Y-143527021D01*
X92876692Y-143645172D01*
X92999732Y-143791960D01*
X93105244Y-143947567D01*
X93195152Y-144114884D01*
X93271382Y-144296801D01*
X93282840Y-144328353D01*
X93296623Y-144367701D01*
X93306050Y-144396399D01*
X93309543Y-144409779D01*
X93312296Y-144423406D01*
X93319836Y-144451500D01*
X93330484Y-144487651D01*
X93348244Y-144554641D01*
X93369391Y-144666414D01*
X93385648Y-144796545D01*
X93396845Y-144943572D01*
X93402810Y-145106032D01*
X93403807Y-145154835D01*
X93405826Y-145230250D01*
X93408533Y-145287946D01*
X93412477Y-145330286D01*
X93418209Y-145359631D01*
X93426281Y-145378343D01*
X93437243Y-145388785D01*
X93451646Y-145393318D01*
X93470041Y-145394304D01*
X93474343Y-145394207D01*
X93501708Y-145386289D01*
X93520934Y-145363448D01*
X93534859Y-145322539D01*
X93538053Y-145307319D01*
X93545459Y-145255012D01*
X93551386Y-145188271D01*
X93555599Y-145112072D01*
X93557869Y-145031391D01*
X93557962Y-144951202D01*
X93555647Y-144876482D01*
X93554705Y-144857536D01*
X93552420Y-144805744D01*
X93550981Y-144763427D01*
X93550503Y-144734533D01*
X93551103Y-144723011D01*
X93559836Y-144726240D01*
X93581173Y-144739270D01*
X93610229Y-144759266D01*
X93630683Y-144773676D01*
X93705114Y-144822546D01*
X93785527Y-144870861D01*
X93864449Y-144914264D01*
X93934408Y-144948394D01*
X93969835Y-144964135D01*
X94028849Y-144990071D01*
X94074940Y-145009695D01*
X94112456Y-145024712D01*
X94145745Y-145036824D01*
X94179154Y-145047735D01*
X94217032Y-145059151D01*
X94247221Y-145067955D01*
X94346423Y-145095260D01*
X94435076Y-145116324D01*
X94518483Y-145131871D01*
X94601948Y-145142628D01*
X94690773Y-145149321D01*
X94790262Y-145152676D01*
X94905717Y-145153418D01*
X94924622Y-145153362D01*
X95006224Y-145152822D01*
X95071894Y-145151611D01*
X95126140Y-145149415D01*
X95173466Y-145145917D01*
X95218380Y-145140802D01*
X95265387Y-145133753D01*
X95318993Y-145124455D01*
X95332332Y-145122023D01*
X95397058Y-145109536D01*
X95460941Y-145096234D01*
X95517241Y-145083564D01*
X95559220Y-145072968D01*
X95632082Y-145051624D01*
X95760367Y-145009572D01*
X95889127Y-144962220D01*
X96012964Y-144911705D01*
X96126486Y-144860163D01*
X96224297Y-144809727D01*
X96226552Y-144808469D01*
X96263608Y-144787846D01*
X96295324Y-144770266D01*
X96315049Y-144759416D01*
X96354119Y-144736844D01*
X96415399Y-144698239D01*
X96484760Y-144651849D01*
X96557477Y-144600927D01*
X96628824Y-144548728D01*
X96694074Y-144498503D01*
X96806090Y-144403723D01*
X96934379Y-144282064D01*
X97059696Y-144150039D01*
X97177042Y-144012944D01*
X97281419Y-143876078D01*
X97340018Y-143793876D01*
X97748404Y-143793333D01*
X97765757Y-143793316D01*
X97855633Y-143793413D01*
X97938023Y-143793806D01*
X98010616Y-143794465D01*
X98071100Y-143795355D01*
X98117164Y-143796444D01*
X98146498Y-143797701D01*
X98156789Y-143799091D01*
X98153623Y-143808304D01*
X98139994Y-143834260D01*
X98117128Y-143873358D01*
X98086679Y-143923037D01*
X98050300Y-143980734D01*
X98009646Y-144043886D01*
X97966368Y-144109933D01*
X97922121Y-144176311D01*
X97878558Y-144240458D01*
X97837333Y-144299812D01*
X97800099Y-144351811D01*
X97707577Y-144478423D01*
X97760518Y-144581361D01*
X97764565Y-144589211D01*
X97787832Y-144633980D01*
X97818145Y-144691880D01*
X97853056Y-144758259D01*
X97890120Y-144828462D01*
X97926890Y-144897835D01*
X97942391Y-144927176D01*
X97974240Y-144988506D01*
X98002098Y-145043551D01*
X98024423Y-145089187D01*
X98039673Y-145122289D01*
X98046306Y-145139734D01*
X98047428Y-145148610D01*
X98045349Y-145161719D01*
X98037206Y-145176643D01*
X98021153Y-145195202D01*
X97995344Y-145219216D01*
X97957933Y-145250506D01*
X97907074Y-145290891D01*
X97840921Y-145342190D01*
X97833052Y-145348257D01*
X97793774Y-145378570D01*
X97757790Y-145406424D01*
X97722877Y-145433566D01*
X97686812Y-145461745D01*
X97647369Y-145492712D01*
X97602325Y-145528213D01*
X97549457Y-145570000D01*
X97486539Y-145619821D01*
X97411349Y-145679424D01*
X97321662Y-145750559D01*
X97312414Y-145757891D01*
X97249410Y-145807643D01*
X97190739Y-145853642D01*
X97138870Y-145893973D01*
X97096277Y-145926723D01*
X97065430Y-145949979D01*
X97048801Y-145961827D01*
X97016420Y-145982329D01*
X96921018Y-145909859D01*
X96891594Y-145887376D01*
X96846963Y-145852837D01*
X96807250Y-145821628D01*
X96778530Y-145798497D01*
X96776936Y-145797181D01*
X96752607Y-145777053D01*
X96715601Y-145746404D01*
X96669336Y-145708068D01*
X96617231Y-145664876D01*
X96562702Y-145619662D01*
X96549615Y-145608827D01*
X96499560Y-145567768D01*
X96455605Y-145532295D01*
X96420316Y-145504441D01*
X96396260Y-145486238D01*
X96386002Y-145479718D01*
X96382652Y-145480322D01*
X96367899Y-145489613D01*
X96365834Y-145491102D01*
X96347395Y-145500443D01*
X96314151Y-145515250D01*
X96270029Y-145533811D01*
X96218958Y-145554419D01*
X96204639Y-145560090D01*
X96153518Y-145580436D01*
X96109288Y-145598188D01*
X96076276Y-145611602D01*
X96058807Y-145618937D01*
X96049703Y-145622537D01*
X96019608Y-145633014D01*
X95974380Y-145647889D01*
X95917410Y-145666085D01*
X95852091Y-145686524D01*
X95781814Y-145708127D01*
X95709972Y-145729815D01*
X95680950Y-145738678D01*
X95646839Y-145750514D01*
X95626657Y-145760857D01*
X95616200Y-145772132D01*
X95611265Y-145786766D01*
X95609960Y-145793455D01*
X95604873Y-145821890D01*
X95597498Y-145864861D01*
X95588612Y-145917812D01*
X95578990Y-145976187D01*
X95573164Y-146011738D01*
X95552181Y-146137558D01*
X95533314Y-146247066D01*
X95516715Y-146339458D01*
X95502535Y-146413930D01*
X95490926Y-146469676D01*
X95482041Y-146505894D01*
X95476031Y-146521778D01*
X95465439Y-146530349D01*
X95441449Y-146539960D01*
X95434086Y-146540666D01*
X95406033Y-146541729D01*
X95360531Y-146542620D01*
X95300005Y-146543344D01*
X95226880Y-146543904D01*
X95143581Y-146544304D01*
X95052533Y-146544548D01*
X94956162Y-146544640D01*
X94856892Y-146544583D01*
X94757148Y-146544382D01*
X94659357Y-146544040D01*
X94565943Y-146543562D01*
X94479330Y-146542951D01*
X94401946Y-146542210D01*
X94336214Y-146541345D01*
X94284559Y-146540358D01*
X94249408Y-146539254D01*
X94233184Y-146538036D01*
X94233136Y-146538026D01*
X94216615Y-146532799D01*
X94203120Y-146523161D01*
X94191532Y-146506343D01*
X94180733Y-146479573D01*
X94169604Y-146440081D01*
X94157027Y-146385097D01*
X94141884Y-146311849D01*
X94140681Y-146305883D01*
X94118252Y-146194724D01*
X94099588Y-146102380D01*
X94084268Y-146026828D01*
X94071875Y-145966047D01*
X94061990Y-145918014D01*
X94054193Y-145880708D01*
X94048066Y-145852107D01*
X94043191Y-145830189D01*
X94039148Y-145812931D01*
X94035518Y-145798312D01*
X94022834Y-145748558D01*
X93843521Y-145704891D01*
X93797244Y-145693830D01*
X93740404Y-145680843D01*
X93692234Y-145670511D01*
X93656745Y-145663687D01*
X93637951Y-145661223D01*
X93609020Y-145668649D01*
X93568932Y-145693175D01*
X93522334Y-145733310D01*
X93471307Y-145787480D01*
X93462847Y-145797143D01*
X93436554Y-145825828D01*
X93416344Y-145845868D01*
X93406038Y-145853405D01*
X93402973Y-145850470D01*
X93393159Y-145831863D01*
X93379549Y-145799898D01*
X93364112Y-145759007D01*
X93348290Y-145718386D01*
X93322579Y-145658513D01*
X93290987Y-145588990D01*
X93255850Y-145514661D01*
X93219503Y-145440371D01*
X93184280Y-145370965D01*
X93152519Y-145311287D01*
X93126553Y-145266183D01*
X93089445Y-145207052D01*
X93010456Y-145089691D01*
X92929131Y-144981573D01*
X92840186Y-144875886D01*
X92738336Y-144765822D01*
X92681603Y-144709472D01*
X92603487Y-144638279D01*
X92520646Y-144568627D01*
X92437694Y-144504220D01*
X92359245Y-144448760D01*
X92289913Y-144405950D01*
X92277841Y-144399113D01*
X92249259Y-144382750D01*
X92210736Y-144360593D01*
X92167130Y-144335432D01*
X92123004Y-144310365D01*
X92061886Y-144276457D01*
X91997316Y-144241304D01*
X91937580Y-144209452D01*
X91899672Y-144189405D01*
X91676332Y-144066115D01*
X91473751Y-143944889D01*
X91292083Y-143825824D01*
X91131485Y-143709014D01*
X91125946Y-143704710D01*
X91068543Y-143656977D01*
X91003814Y-143598493D01*
X90935154Y-143532741D01*
X90865958Y-143463204D01*
X90799620Y-143393365D01*
X90739537Y-143326705D01*
X90689103Y-143266709D01*
X90651712Y-143216858D01*
X90648049Y-143211504D01*
X90616688Y-143167632D01*
X90594514Y-143140319D01*
X90582102Y-143129781D01*
X90580022Y-143136231D01*
X90588846Y-143159882D01*
X90609148Y-143200949D01*
X90637155Y-143254080D01*
X90676022Y-143327360D01*
X90706912Y-143384888D01*
X90730924Y-143428685D01*
X90749158Y-143460771D01*
X90762711Y-143483165D01*
X90786612Y-143520188D01*
X90845922Y-143606682D01*
X90907267Y-143687758D01*
X90972352Y-143764910D01*
X91042886Y-143839634D01*
X91120576Y-143913425D01*
X91207129Y-143987779D01*
X91304251Y-144064191D01*
X91413651Y-144144158D01*
X91537036Y-144229173D01*
X91676112Y-144320733D01*
X91832588Y-144420333D01*
X91875908Y-144447619D01*
X92014395Y-144536067D01*
X92136972Y-144616593D01*
X92245889Y-144690887D01*
X92343399Y-144760638D01*
X92431753Y-144827537D01*
X92513203Y-144893274D01*
X92590001Y-144959539D01*
X92664398Y-145028022D01*
X92738645Y-145100413D01*
X92831490Y-145197585D01*
X92943422Y-145330532D01*
X93038858Y-145465824D01*
X93120315Y-145607518D01*
X93190314Y-145759671D01*
X93251371Y-145926342D01*
X93272518Y-145993486D01*
X93310319Y-146130966D01*
X93338334Y-146260106D01*
X93355925Y-146377730D01*
X93362458Y-146480664D01*
X93362926Y-146536717D01*
X93282851Y-146538319D01*
X93277645Y-146538424D01*
X93237650Y-146539350D01*
X93206145Y-146540266D01*
X93189561Y-146540988D01*
X93185482Y-146539535D01*
X93176165Y-146522823D01*
X93169039Y-146490968D01*
X93162558Y-146461465D01*
X93148280Y-146416838D01*
X93130480Y-146373523D01*
X93115983Y-146346207D01*
X93083655Y-146295058D01*
X93042932Y-146237893D01*
X92997948Y-146180168D01*
X92952835Y-146127336D01*
X92911727Y-146084851D01*
X92848835Y-146032066D01*
X92744489Y-145964278D01*
X92625874Y-145906635D01*
X92496359Y-145860703D01*
X92359311Y-145828048D01*
X92302562Y-145817443D01*
X92158869Y-145787838D01*
X92030912Y-145756835D01*
X91914568Y-145723280D01*
X91805715Y-145686023D01*
X91700230Y-145643911D01*
X91539225Y-145570978D01*
X91359266Y-145477263D01*
X91193296Y-145375680D01*
X91037392Y-145263585D01*
X90887632Y-145138338D01*
X90740092Y-144997297D01*
X90719722Y-144976548D01*
X90676298Y-144931737D01*
X90636977Y-144890425D01*
X90605423Y-144856481D01*
X90585297Y-144833775D01*
X90571880Y-144817803D01*
X90553565Y-144796379D01*
X90544005Y-144785729D01*
X90542217Y-144783884D01*
X90528171Y-144767066D01*
X90506444Y-144739385D01*
X90480984Y-144705999D01*
X90455735Y-144672068D01*
X90434644Y-144642752D01*
X90417585Y-144618210D01*
X90304795Y-144445930D01*
X90207645Y-144277455D01*
X90123359Y-144107240D01*
X90049159Y-143929739D01*
X89982270Y-143739407D01*
X89979511Y-143730795D01*
X89955729Y-143651255D01*
X89930383Y-143558369D01*
X89904594Y-143456959D01*
X89879484Y-143351846D01*
X89856174Y-143247853D01*
X89835784Y-143149802D01*
X89819435Y-143062515D01*
X89808249Y-142990814D01*
X89805043Y-142965539D01*
X89789972Y-142805344D01*
X89781649Y-142630908D01*
X89780134Y-142447399D01*
X89785485Y-142259985D01*
X89797762Y-142073833D01*
X89801065Y-142041046D01*
X89807826Y-141986743D01*
X89816618Y-141924769D01*
X89826821Y-141858728D01*
X89837814Y-141792221D01*
X89848978Y-141728852D01*
X89859693Y-141672223D01*
X89869339Y-141625937D01*
X89877296Y-141593597D01*
X89882944Y-141578807D01*
X89884984Y-141577683D01*
X89895970Y-141584810D01*
G37*
D14*
%TO.C,U7*%
X154922841Y-121875000D02*
G75*
G02*
X154357159Y-121875000I-282841J0D01*
G01*
X154357159Y-121875000D02*
G75*
G02*
X154922841Y-121875000I282841J0D01*
G01*
X154781419Y-121875000D02*
G75*
G02*
X154498581Y-121875000I-141419J0D01*
G01*
X154498581Y-121875000D02*
G75*
G02*
X154781419Y-121875000I141419J0D01*
G01*
D15*
%TO.C,BT1*%
X101620001Y-82625000D02*
X102619999Y-82625000D01*
X106152800Y-75094999D02*
X106152800Y-83074999D01*
X106152800Y-90174999D02*
X106152800Y-98155000D01*
X106152800Y-98155000D02*
X188347300Y-98154999D01*
X188347300Y-75094999D02*
X106152800Y-75094999D01*
X188347300Y-83075000D02*
X188347300Y-75094999D01*
X188347300Y-98154999D02*
X188347300Y-90175000D01*
X191880000Y-82125000D02*
X192880001Y-82125000D01*
X192379999Y-82625000D02*
X192380000Y-81625000D01*
D12*
%TO.C,R19*%
X102665596Y-78648754D02*
X102586737Y-79095983D01*
X104113263Y-78904017D02*
X104034404Y-79351246D01*
%TO.C,U6*%
X158725000Y-116710000D02*
X158725000Y-118075000D01*
X158725000Y-118075000D02*
X159675000Y-118075000D01*
X169125000Y-116710000D02*
X169125000Y-118075000D01*
X169125000Y-118075000D02*
X168175000Y-118075000D01*
X168605000Y-121240000D02*
X168135000Y-120900000D01*
X168605000Y-120560000D01*
X168605000Y-121240000D01*
G36*
X168605000Y-121240000D02*
G01*
X168135000Y-120900000D01*
X168605000Y-120560000D01*
X168605000Y-121240000D01*
G37*
D15*
%TO.C,BT2*%
X192469594Y-62917824D02*
X206742520Y-143863605D01*
X198779347Y-58218047D02*
X198605697Y-57233239D01*
X199184927Y-57638819D02*
X198200118Y-57812467D01*
X200328360Y-61532112D02*
X192469594Y-62917824D01*
X206742520Y-143863605D02*
X214601286Y-142477892D01*
X214945234Y-147019971D02*
X214771587Y-146035164D01*
X215179262Y-58913497D02*
X207320496Y-60299209D01*
X221593420Y-141244990D02*
X229452188Y-139859278D01*
X229452188Y-139859278D02*
X215179262Y-58913497D01*
D12*
%TO.C,C5*%
X122990000Y-108190000D02*
X122990000Y-112040000D01*
X122990000Y-118910000D02*
X122990000Y-115060000D01*
X132645563Y-108190000D02*
X122990000Y-108190000D01*
X132645563Y-118910000D02*
X122990000Y-118910000D01*
X133710000Y-109254437D02*
X132645563Y-108190000D01*
X133710000Y-109254437D02*
X133710000Y-112040000D01*
X133710000Y-117845563D02*
X132645563Y-118910000D01*
X133710000Y-117845563D02*
X133710000Y-115060000D01*
X134575000Y-110165000D02*
X134575000Y-111415000D01*
X135200000Y-110790000D02*
X133950000Y-110790000D01*
D14*
%TO.C,D8*%
X158550000Y-124975000D02*
X163500000Y-124975000D01*
D15*
X161625000Y-125025000D02*
X161625000Y-127425000D01*
D14*
X163500000Y-127475000D02*
X158550000Y-127475000D01*
D12*
%TO.C,C9*%
X109917500Y-130735000D02*
X111167500Y-130735000D01*
X110542500Y-131360000D02*
X110542500Y-130110000D01*
X111407500Y-123679437D02*
X111407500Y-126465000D01*
X111407500Y-123679437D02*
X112471937Y-122615000D01*
X111407500Y-132270563D02*
X111407500Y-129485000D01*
X111407500Y-132270563D02*
X112471937Y-133335000D01*
X112471937Y-122615000D02*
X122127500Y-122615000D01*
X112471937Y-133335000D02*
X122127500Y-133335000D01*
X122127500Y-122615000D02*
X122127500Y-126465000D01*
X122127500Y-133335000D02*
X122127500Y-129485000D01*
%TO.C,R5*%
X156377064Y-100365000D02*
X155922936Y-100365000D01*
X156377064Y-101835000D02*
X155922936Y-101835000D01*
%TO.C,R6*%
X160022936Y-100340000D02*
X160477064Y-100340000D01*
X160022936Y-101810000D02*
X160477064Y-101810000D01*
%TD*%
M02*
