%TF.GenerationSoftware,KiCad,Pcbnew,9.0.6*%
%TF.CreationDate,2026-02-24T19:23:11+07:00*%
%TF.ProjectId,ps,70732e6b-6963-4616-945f-706362585858,rev?*%
%TF.SameCoordinates,Original*%
%TF.FileFunction,Profile,NP*%
%FSLAX46Y46*%
G04 Gerber Fmt 4.6, Leading zero omitted, Abs format (unit mm)*
G04 Created by KiCad (PCBNEW 9.0.6) date 2026-02-24 19:23:11*
%MOMM*%
%LPD*%
G01*
G04 APERTURE LIST*
%TA.AperFunction,Profile*%
%ADD10C,0.050000*%
%TD*%
G04 APERTURE END LIST*
D10*
X113995200Y-149484006D02*
X130352800Y-133126406D01*
X86116326Y-139635925D02*
X88995200Y-149484006D01*
X202260730Y-149534775D02*
X185903130Y-133126406D01*
X215025000Y-53225000D02*
X230258491Y-139686670D01*
X192150000Y-51054000D02*
X209630000Y-51054000D01*
X99750000Y-91500000D02*
G75*
G02*
X96750000Y-91500000I-1500000J0D01*
G01*
X96750000Y-91500000D02*
G75*
G02*
X99750000Y-91500000I1500000J0D01*
G01*
X88995200Y-149484006D02*
X113995200Y-149484006D01*
X193250000Y-96000000D02*
G75*
G02*
X190250000Y-96000000I-1500000J0D01*
G01*
X190250000Y-96000000D02*
G75*
G02*
X193250000Y-96000000I1500000J0D01*
G01*
X230258491Y-139686670D02*
X227260730Y-149534775D01*
X114500000Y-53250000D02*
G75*
G02*
X111500000Y-53250000I-1500000J0D01*
G01*
X111500000Y-53250000D02*
G75*
G02*
X114500000Y-53250000I1500000J0D01*
G01*
X202260730Y-149534775D02*
X227260730Y-149534775D01*
X133515093Y-60918293D02*
X182285707Y-60918293D01*
X182285707Y-60918293D02*
X192150000Y-51054000D01*
X123600000Y-51003200D02*
X133515093Y-60918293D01*
X209630000Y-51054000D02*
X215025000Y-53225000D01*
X202250000Y-141250000D02*
G75*
G02*
X199250000Y-141250000I-1500000J0D01*
G01*
X199250000Y-141250000D02*
G75*
G02*
X202250000Y-141250000I1500000J0D01*
G01*
X106744507Y-51003200D02*
X123600000Y-51003200D01*
X156750000Y-130000000D02*
G75*
G02*
X153750000Y-130000000I-1500000J0D01*
G01*
X153750000Y-130000000D02*
G75*
G02*
X156750000Y-130000000I1500000J0D01*
G01*
X93750000Y-119500000D02*
G75*
G02*
X90750000Y-119500000I-1500000J0D01*
G01*
X90750000Y-119500000D02*
G75*
G02*
X93750000Y-119500000I1500000J0D01*
G01*
X106744507Y-51003200D02*
X101350000Y-53325000D01*
X130352800Y-133126406D02*
X185903130Y-133126406D01*
X209250000Y-53500000D02*
G75*
G02*
X206250000Y-53500000I-1500000J0D01*
G01*
X206250000Y-53500000D02*
G75*
G02*
X209250000Y-53500000I1500000J0D01*
G01*
X101350000Y-53325000D02*
X86116326Y-139635925D01*
M02*
