%TF.GenerationSoftware,KiCad,Pcbnew,9.0.6*%
%TF.CreationDate,2026-02-24T19:23:10+07:00*%
%TF.ProjectId,ps,70732e6b-6963-4616-945f-706362585858,rev?*%
%TF.SameCoordinates,Original*%
%TF.FileFunction,Paste,Top*%
%TF.FilePolarity,Positive*%
%FSLAX46Y46*%
G04 Gerber Fmt 4.6, Leading zero omitted, Abs format (unit mm)*
G04 Created by KiCad (PCBNEW 9.0.6) date 2026-02-24 19:23:10*
%MOMM*%
%LPD*%
G01*
G04 APERTURE LIST*
G04 Aperture macros list*
%AMRoundRect*
0 Rectangle with rounded corners*
0 $1 Rounding radius*
0 $2 $3 $4 $5 $6 $7 $8 $9 X,Y pos of 4 corners*
0 Add a 4 corners polygon primitive as box body*
4,1,4,$2,$3,$4,$5,$6,$7,$8,$9,$2,$3,0*
0 Add four circle primitives for the rounded corners*
1,1,$1+$1,$2,$3*
1,1,$1+$1,$4,$5*
1,1,$1+$1,$6,$7*
1,1,$1+$1,$8,$9*
0 Add four rect primitives between the rounded corners*
20,1,$1+$1,$2,$3,$4,$5,0*
20,1,$1+$1,$4,$5,$6,$7,0*
20,1,$1+$1,$6,$7,$8,$9,0*
20,1,$1+$1,$8,$9,$2,$3,0*%
%AMRotRect*
0 Rectangle, with rotation*
0 The origin of the aperture is its center*
0 $1 length*
0 $2 width*
0 $3 Rotation angle, in degrees counterclockwise*
0 Add horizontal line*
21,1,$1,$2,0,0,$3*%
G04 Aperture macros list end*
%ADD10R,1.500000X0.900000*%
%ADD11R,0.900000X1.500000*%
%ADD12R,0.900000X0.900000*%
%ADD13RoundRect,0.250000X-1.000000X1.950000X-1.000000X-1.950000X1.000000X-1.950000X1.000000X1.950000X0*%
%ADD14RotRect,3.200000X1.600000X45.000000*%
%ADD15RotRect,0.400000X1.350000X100.000000*%
%ADD16RotRect,1.500000X1.900000X100.000000*%
%ADD17RoundRect,0.250000X0.450000X-0.350000X0.450000X0.350000X-0.450000X0.350000X-0.450000X-0.350000X0*%
%ADD18RoundRect,0.250000X0.450000X-0.800000X0.450000X0.800000X-0.450000X0.800000X-0.450000X-0.800000X0*%
%ADD19RoundRect,0.150000X0.150000X-0.587500X0.150000X0.587500X-0.150000X0.587500X-0.150000X-0.587500X0*%
%ADD20RoundRect,0.250000X-0.550000X1.500000X-0.550000X-1.500000X0.550000X-1.500000X0.550000X1.500000X0*%
%ADD21RoundRect,0.250000X0.475000X-0.337500X0.475000X0.337500X-0.475000X0.337500X-0.475000X-0.337500X0*%
%ADD22RoundRect,0.250000X-0.450000X0.350000X-0.450000X-0.350000X0.450000X-0.350000X0.450000X0.350000X0*%
%ADD23RoundRect,0.150000X0.825000X0.150000X-0.825000X0.150000X-0.825000X-0.150000X0.825000X-0.150000X0*%
%ADD24RoundRect,0.250000X-0.800000X-0.450000X0.800000X-0.450000X0.800000X0.450000X-0.800000X0.450000X0*%
%ADD25RoundRect,0.250000X-1.500000X-0.550000X1.500000X-0.550000X1.500000X0.550000X-1.500000X0.550000X0*%
%ADD26RoundRect,0.250000X0.350000X0.450000X-0.350000X0.450000X-0.350000X-0.450000X0.350000X-0.450000X0*%
%ADD27R,2.250000X1.550000*%
%ADD28RoundRect,0.250000X-0.350000X-0.450000X0.350000X-0.450000X0.350000X0.450000X-0.350000X0.450000X0*%
%ADD29RoundRect,0.250000X-0.337500X-0.475000X0.337500X-0.475000X0.337500X0.475000X-0.337500X0.475000X0*%
%ADD30RoundRect,0.375000X-0.375000X0.625000X-0.375000X-0.625000X0.375000X-0.625000X0.375000X0.625000X0*%
%ADD31RoundRect,0.500000X-1.400000X0.500000X-1.400000X-0.500000X1.400000X-0.500000X1.400000X0.500000X0*%
%ADD32RoundRect,0.250000X-0.450000X0.800000X-0.450000X-0.800000X0.450000X-0.800000X0.450000X0.800000X0*%
%ADD33RoundRect,0.250000X-0.475000X0.337500X-0.475000X-0.337500X0.475000X-0.337500X0.475000X0.337500X0*%
%ADD34RoundRect,0.243750X0.456250X-0.243750X0.456250X0.243750X-0.456250X0.243750X-0.456250X-0.243750X0*%
%ADD35RoundRect,0.243750X0.243750X0.456250X-0.243750X0.456250X-0.243750X-0.456250X0.243750X-0.456250X0*%
%ADD36RoundRect,0.250000X0.800000X0.450000X-0.800000X0.450000X-0.800000X-0.450000X0.800000X-0.450000X0*%
G04 APERTURE END LIST*
D10*
%TO.C,U1*%
X149100000Y-61880000D03*
X149100000Y-63150000D03*
X149100000Y-64420000D03*
X149100000Y-65690000D03*
X149100000Y-66960000D03*
X149100000Y-68230000D03*
X149100000Y-69500000D03*
X149100000Y-70770000D03*
X149100000Y-72040000D03*
X149100000Y-73310000D03*
X149100000Y-74580000D03*
X149100000Y-75850000D03*
X149100000Y-77120000D03*
X149100000Y-78390000D03*
D11*
X152140000Y-79640000D03*
X153410000Y-79640000D03*
X154680000Y-79640000D03*
X155950000Y-79640000D03*
X157220000Y-79640000D03*
X158490000Y-79640000D03*
X159760000Y-79640000D03*
X161030000Y-79640000D03*
X162300000Y-79640000D03*
X163570000Y-79640000D03*
D10*
X166600000Y-78390000D03*
X166600000Y-77120000D03*
X166600000Y-75850000D03*
X166600000Y-74580000D03*
X166600000Y-73310000D03*
X166600000Y-72040000D03*
X166600000Y-70770000D03*
X166600000Y-69500000D03*
X166600000Y-68230000D03*
X166600000Y-66960000D03*
X166600000Y-65690000D03*
X166600000Y-64420000D03*
X166600000Y-63150000D03*
X166600000Y-61880000D03*
D12*
X154950000Y-68200000D03*
X154950000Y-69600000D03*
X154950000Y-71000000D03*
X156350000Y-68200000D03*
X156350000Y-71000000D03*
X157750000Y-68200000D03*
X157750000Y-69600000D03*
X157750000Y-71000000D03*
%TD*%
D13*
%TO.C,C3*%
X116725000Y-128917500D03*
X116725000Y-137317500D03*
%TD*%
D14*
%TO.C,L3*%
X191778376Y-130053374D03*
X198071624Y-136346626D03*
%TD*%
D15*
%TO.C,J1*%
X210863161Y-60618111D03*
X210750290Y-59977985D03*
X210637419Y-59337860D03*
X210524547Y-58697735D03*
X210411676Y-58057610D03*
D16*
X213470048Y-59853818D03*
X213122751Y-57884203D03*
%TD*%
D17*
%TO.C,R1*%
X197825000Y-83175000D03*
X197825000Y-81175000D03*
%TD*%
%TO.C,R15*%
X127950000Y-93900000D03*
X127950000Y-91900000D03*
%TD*%
D18*
%TO.C,SW3*%
X142200000Y-97750000D03*
X142200000Y-88650000D03*
X146700000Y-97750000D03*
X146700000Y-88650000D03*
%TD*%
D19*
%TO.C,Q2*%
X160700000Y-85862500D03*
X162600000Y-85862500D03*
X161650000Y-83987500D03*
%TD*%
D20*
%TO.C,C16*%
X160975000Y-89550000D03*
X160975000Y-95150000D03*
%TD*%
D21*
%TO.C,C17*%
X178100000Y-85087500D03*
X178100000Y-83012500D03*
%TD*%
D22*
%TO.C,R43*%
X178175000Y-86975000D03*
X178175000Y-88975000D03*
%TD*%
%TO.C,R3*%
X152575000Y-84100000D03*
X152575000Y-86100000D03*
%TD*%
D23*
%TO.C,U4*%
X176950000Y-71695000D03*
X176950000Y-70425000D03*
X176950000Y-69155000D03*
X176950000Y-67885000D03*
X176950000Y-66615000D03*
X176950000Y-65345000D03*
X176950000Y-64075000D03*
X176950000Y-62805000D03*
X172000000Y-62805000D03*
X172000000Y-64075000D03*
X172000000Y-65345000D03*
X172000000Y-66615000D03*
X172000000Y-67885000D03*
X172000000Y-69155000D03*
X172000000Y-70425000D03*
X172000000Y-71695000D03*
%TD*%
D24*
%TO.C,SW10*%
X118750000Y-85150000D03*
X127850000Y-85150000D03*
X118750000Y-89650000D03*
X127850000Y-89650000D03*
%TD*%
%TO.C,SW1*%
X197925000Y-74625000D03*
X207025000Y-74625000D03*
X197925000Y-79125000D03*
X207025000Y-79125000D03*
%TD*%
%TO.C,SW9*%
X118825000Y-67925000D03*
X127925000Y-67925000D03*
X118825000Y-72425000D03*
X127925000Y-72425000D03*
%TD*%
D25*
%TO.C,C18*%
X182850000Y-70300000D03*
X188450000Y-70300000D03*
%TD*%
D26*
%TO.C,R13*%
X145325000Y-81200000D03*
X143325000Y-81200000D03*
%TD*%
%TO.C,R17*%
X109625000Y-116100000D03*
X107625000Y-116100000D03*
%TD*%
D27*
%TO.C,D6*%
X203300000Y-62000000D03*
X207300000Y-62000000D03*
%TD*%
D28*
%TO.C,R11*%
X204800000Y-89700000D03*
X206800000Y-89700000D03*
%TD*%
D24*
%TO.C,SW8*%
X131900000Y-76675000D03*
X141000000Y-76675000D03*
X131900000Y-81175000D03*
X141000000Y-81175000D03*
%TD*%
D26*
%TO.C,R16*%
X114800000Y-104200000D03*
X112800000Y-104200000D03*
%TD*%
D29*
%TO.C,C20*%
X169812500Y-82350000D03*
X171887500Y-82350000D03*
%TD*%
D30*
%TO.C,U16*%
X174200000Y-84950000D03*
X171900000Y-84950000D03*
D31*
X171900000Y-91250000D03*
D30*
X169600000Y-84950000D03*
%TD*%
D32*
%TO.C,SW2*%
X153725000Y-88700000D03*
X153725000Y-97800000D03*
X149225000Y-88700000D03*
X149225000Y-97800000D03*
%TD*%
D26*
%TO.C,R10*%
X198800000Y-89525000D03*
X196800000Y-89525000D03*
%TD*%
D17*
%TO.C,R7*%
X165650000Y-84350000D03*
X165650000Y-82350000D03*
%TD*%
D13*
%TO.C,C2*%
X94325000Y-136750000D03*
X94325000Y-145150000D03*
%TD*%
D33*
%TO.C,C8*%
X179475000Y-68612500D03*
X179475000Y-70687500D03*
%TD*%
D34*
%TO.C,D21*%
X178175000Y-92562500D03*
X178175000Y-90687500D03*
%TD*%
D24*
%TO.C,SW7*%
X105575000Y-76125000D03*
X114675000Y-76125000D03*
X105575000Y-80625000D03*
X114675000Y-80625000D03*
%TD*%
%TO.C,SW13*%
X92525000Y-124575000D03*
X101625000Y-124575000D03*
X92525000Y-129075000D03*
X101625000Y-129075000D03*
%TD*%
D13*
%TO.C,C10*%
X217300000Y-107217500D03*
X217300000Y-115617500D03*
%TD*%
D24*
%TO.C,SW5*%
X185375000Y-84850000D03*
X194475000Y-84850000D03*
X185375000Y-89350000D03*
X194475000Y-89350000D03*
%TD*%
D13*
%TO.C,C4*%
X205950000Y-107167500D03*
X205950000Y-115567500D03*
%TD*%
D22*
%TO.C,R4*%
X165625000Y-86625000D03*
X165625000Y-88625000D03*
%TD*%
D26*
%TO.C,R18*%
X106200000Y-129175000D03*
X104200000Y-129175000D03*
%TD*%
%TO.C,R14*%
X132275000Y-72475000D03*
X130275000Y-72475000D03*
%TD*%
%TO.C,R2*%
X197950000Y-92750000D03*
X195950000Y-92750000D03*
%TD*%
D28*
%TO.C,R9*%
X168825000Y-79725000D03*
X170825000Y-79725000D03*
%TD*%
D35*
%TO.C,D7*%
X174462500Y-79700000D03*
X172587500Y-79700000D03*
%TD*%
D24*
%TO.C,SW12*%
X96200000Y-111550000D03*
X105300000Y-111550000D03*
X96200000Y-116050000D03*
X105300000Y-116050000D03*
%TD*%
D33*
%TO.C,C7*%
X150450000Y-84087500D03*
X150450000Y-86162500D03*
%TD*%
D19*
%TO.C,Q1*%
X155725000Y-85850000D03*
X157625000Y-85850000D03*
X156675000Y-83975000D03*
%TD*%
D24*
%TO.C,SW11*%
X101250000Y-99675000D03*
X110350000Y-99675000D03*
X101250000Y-104175000D03*
X110350000Y-104175000D03*
%TD*%
D36*
%TO.C,SW4*%
X205500000Y-99450000D03*
X196400000Y-99450000D03*
X205500000Y-94950000D03*
X196400000Y-94950000D03*
%TD*%
D24*
%TO.C,SW6*%
X209175000Y-85125000D03*
X218275000Y-85125000D03*
X209175000Y-89625000D03*
X218275000Y-89625000D03*
%TD*%
D13*
%TO.C,C1*%
X105500000Y-136792500D03*
X105500000Y-145192500D03*
%TD*%
D26*
%TO.C,R12*%
X119075000Y-80675000D03*
X117075000Y-80675000D03*
%TD*%
M02*
