%TF.GenerationSoftware,KiCad,Pcbnew,9.0.6*%
%TF.CreationDate,2026-02-24T19:23:16+07:00*%
%TF.ProjectId,ps,70732e6b-6963-4616-945f-706362585858,rev?*%
%TF.SameCoordinates,Original*%
%TF.FileFunction,Drillmap*%
%TF.FilePolarity,Positive*%
%FSLAX45Y45*%
G04 Gerber Fmt 4.5, Leading zero omitted, Abs format (unit mm)*
G04 Created by KiCad (PCBNEW 9.0.6) date 2026-02-24 19:23:16*
%MOMM*%
%LPD*%
G01*
G04 APERTURE LIST*
%ADD10C,0.050000*%
%ADD11C,0.200000*%
%ADD12C,0.239000*%
%ADD13C,0.345000*%
G04 APERTURE END LIST*
D10*
X11399520Y-14948401D02*
X13035280Y-13312641D01*
X8611633Y-13963592D02*
X8899520Y-14948401D01*
X20226073Y-14953477D02*
X18590313Y-13312641D01*
X21502500Y-5322500D02*
X23025849Y-13968667D01*
X19215000Y-5105400D02*
X20963000Y-5105400D01*
X9975000Y-9150000D02*
G75*
G02*
X9675000Y-9150000I-150000J0D01*
G01*
X9675000Y-9150000D02*
G75*
G02*
X9975000Y-9150000I150000J0D01*
G01*
X8899520Y-14948401D02*
X11399520Y-14948401D01*
X19325000Y-9600000D02*
G75*
G02*
X19025000Y-9600000I-150000J0D01*
G01*
X19025000Y-9600000D02*
G75*
G02*
X19325000Y-9600000I150000J0D01*
G01*
X23025849Y-13968667D02*
X22726073Y-14953477D01*
X11450000Y-5325000D02*
G75*
G02*
X11150000Y-5325000I-150000J0D01*
G01*
X11150000Y-5325000D02*
G75*
G02*
X11450000Y-5325000I150000J0D01*
G01*
X20226073Y-14953477D02*
X22726073Y-14953477D01*
X13351509Y-6091829D02*
X18228571Y-6091829D01*
X18228571Y-6091829D02*
X19215000Y-5105400D01*
X12360000Y-5100320D02*
X13351509Y-6091829D01*
X20963000Y-5105400D02*
X21502500Y-5322500D01*
X20225000Y-14125000D02*
G75*
G02*
X19925000Y-14125000I-150000J0D01*
G01*
X19925000Y-14125000D02*
G75*
G02*
X20225000Y-14125000I150000J0D01*
G01*
X10674451Y-5100320D02*
X12360000Y-5100320D01*
X15675000Y-13000000D02*
G75*
G02*
X15375000Y-13000000I-150000J0D01*
G01*
X15375000Y-13000000D02*
G75*
G02*
X15675000Y-13000000I150000J0D01*
G01*
X9375000Y-11950000D02*
G75*
G02*
X9075000Y-11950000I-150000J0D01*
G01*
X9075000Y-11950000D02*
G75*
G02*
X9375000Y-11950000I150000J0D01*
G01*
X10674451Y-5100320D02*
X10135000Y-5332500D01*
X13035280Y-13312641D02*
X18590313Y-13312641D01*
X20925000Y-5350000D02*
G75*
G02*
X20625000Y-5350000I-150000J0D01*
G01*
X20625000Y-5350000D02*
G75*
G02*
X20925000Y-5350000I150000J0D01*
G01*
X10135000Y-5332500D02*
X8611633Y-13963592D01*
D11*
D12*
X18453000Y-7643000D02*
X18692000Y-7882000D01*
X18692000Y-7643000D02*
X18453000Y-7882000D01*
X19422152Y-6386596D02*
X19661152Y-6625596D01*
X19661152Y-6386596D02*
X19422152Y-6625596D01*
D13*
X12105000Y-7762500D02*
G75*
G02*
X11760000Y-7762500I-172500J0D01*
G01*
X11760000Y-7762500D02*
G75*
G02*
X12105000Y-7762500I172500J0D01*
G01*
X17690000Y-9562500D02*
G75*
G02*
X17345000Y-9562500I-172500J0D01*
G01*
X17345000Y-9562500D02*
G75*
G02*
X17690000Y-9562500I172500J0D01*
G01*
X21670004Y-7232501D02*
G75*
G02*
X21325004Y-7232501I-172500J0D01*
G01*
X21325004Y-7232501D02*
G75*
G02*
X21670004Y-7232501I172500J0D01*
G01*
D11*
X8869909Y-15267461D02*
X8869909Y-15067461D01*
X8869909Y-15067461D02*
X8917528Y-15067461D01*
X8917528Y-15067461D02*
X8946100Y-15076985D01*
X8946100Y-15076985D02*
X8965148Y-15096033D01*
X8965148Y-15096033D02*
X8974671Y-15115080D01*
X8974671Y-15115080D02*
X8984195Y-15153175D01*
X8984195Y-15153175D02*
X8984195Y-15181747D01*
X8984195Y-15181747D02*
X8974671Y-15219842D01*
X8974671Y-15219842D02*
X8965148Y-15238890D01*
X8965148Y-15238890D02*
X8946100Y-15257937D01*
X8946100Y-15257937D02*
X8917528Y-15267461D01*
X8917528Y-15267461D02*
X8869909Y-15267461D01*
X9069909Y-15267461D02*
X9069909Y-15134128D01*
X9069909Y-15172223D02*
X9079433Y-15153175D01*
X9079433Y-15153175D02*
X9088957Y-15143652D01*
X9088957Y-15143652D02*
X9108005Y-15134128D01*
X9108005Y-15134128D02*
X9127052Y-15134128D01*
X9193719Y-15267461D02*
X9193719Y-15134128D01*
X9193719Y-15067461D02*
X9184195Y-15076985D01*
X9184195Y-15076985D02*
X9193719Y-15086509D01*
X9193719Y-15086509D02*
X9203243Y-15076985D01*
X9203243Y-15076985D02*
X9193719Y-15067461D01*
X9193719Y-15067461D02*
X9193719Y-15086509D01*
X9317528Y-15267461D02*
X9298481Y-15257937D01*
X9298481Y-15257937D02*
X9288957Y-15238890D01*
X9288957Y-15238890D02*
X9288957Y-15067461D01*
X9422290Y-15267461D02*
X9403243Y-15257937D01*
X9403243Y-15257937D02*
X9393719Y-15238890D01*
X9393719Y-15238890D02*
X9393719Y-15067461D01*
X9650862Y-15267461D02*
X9650862Y-15067461D01*
X9650862Y-15067461D02*
X9717529Y-15210318D01*
X9717529Y-15210318D02*
X9784195Y-15067461D01*
X9784195Y-15067461D02*
X9784195Y-15267461D01*
X9965148Y-15267461D02*
X9965148Y-15162699D01*
X9965148Y-15162699D02*
X9955624Y-15143652D01*
X9955624Y-15143652D02*
X9936576Y-15134128D01*
X9936576Y-15134128D02*
X9898481Y-15134128D01*
X9898481Y-15134128D02*
X9879433Y-15143652D01*
X9965148Y-15257937D02*
X9946100Y-15267461D01*
X9946100Y-15267461D02*
X9898481Y-15267461D01*
X9898481Y-15267461D02*
X9879433Y-15257937D01*
X9879433Y-15257937D02*
X9869909Y-15238890D01*
X9869909Y-15238890D02*
X9869909Y-15219842D01*
X9869909Y-15219842D02*
X9879433Y-15200795D01*
X9879433Y-15200795D02*
X9898481Y-15191271D01*
X9898481Y-15191271D02*
X9946100Y-15191271D01*
X9946100Y-15191271D02*
X9965148Y-15181747D01*
X10060386Y-15134128D02*
X10060386Y-15334128D01*
X10060386Y-15143652D02*
X10079433Y-15134128D01*
X10079433Y-15134128D02*
X10117529Y-15134128D01*
X10117529Y-15134128D02*
X10136576Y-15143652D01*
X10136576Y-15143652D02*
X10146100Y-15153175D01*
X10146100Y-15153175D02*
X10155624Y-15172223D01*
X10155624Y-15172223D02*
X10155624Y-15229366D01*
X10155624Y-15229366D02*
X10146100Y-15248414D01*
X10146100Y-15248414D02*
X10136576Y-15257937D01*
X10136576Y-15257937D02*
X10117529Y-15267461D01*
X10117529Y-15267461D02*
X10079433Y-15267461D01*
X10079433Y-15267461D02*
X10060386Y-15257937D01*
X10241338Y-15248414D02*
X10250862Y-15257937D01*
X10250862Y-15257937D02*
X10241338Y-15267461D01*
X10241338Y-15267461D02*
X10231814Y-15257937D01*
X10231814Y-15257937D02*
X10241338Y-15248414D01*
X10241338Y-15248414D02*
X10241338Y-15267461D01*
X10241338Y-15143652D02*
X10250862Y-15153175D01*
X10250862Y-15153175D02*
X10241338Y-15162699D01*
X10241338Y-15162699D02*
X10231814Y-15153175D01*
X10231814Y-15153175D02*
X10241338Y-15143652D01*
X10241338Y-15143652D02*
X10241338Y-15162699D01*
X8409133Y-15495977D02*
X8609133Y-15695977D01*
X8609133Y-15495977D02*
X8409133Y-15695977D01*
X8860386Y-15506509D02*
X8869909Y-15496985D01*
X8869909Y-15496985D02*
X8888957Y-15487461D01*
X8888957Y-15487461D02*
X8936576Y-15487461D01*
X8936576Y-15487461D02*
X8955624Y-15496985D01*
X8955624Y-15496985D02*
X8965148Y-15506509D01*
X8965148Y-15506509D02*
X8974671Y-15525556D01*
X8974671Y-15525556D02*
X8974671Y-15544604D01*
X8974671Y-15544604D02*
X8965148Y-15573175D01*
X8965148Y-15573175D02*
X8850862Y-15687461D01*
X8850862Y-15687461D02*
X8974671Y-15687461D01*
X9060386Y-15668414D02*
X9069909Y-15677937D01*
X9069909Y-15677937D02*
X9060386Y-15687461D01*
X9060386Y-15687461D02*
X9050862Y-15677937D01*
X9050862Y-15677937D02*
X9060386Y-15668414D01*
X9060386Y-15668414D02*
X9060386Y-15687461D01*
X9136576Y-15487461D02*
X9260386Y-15487461D01*
X9260386Y-15487461D02*
X9193719Y-15563652D01*
X9193719Y-15563652D02*
X9222290Y-15563652D01*
X9222290Y-15563652D02*
X9241338Y-15573175D01*
X9241338Y-15573175D02*
X9250862Y-15582699D01*
X9250862Y-15582699D02*
X9260386Y-15601747D01*
X9260386Y-15601747D02*
X9260386Y-15649366D01*
X9260386Y-15649366D02*
X9250862Y-15668414D01*
X9250862Y-15668414D02*
X9241338Y-15677937D01*
X9241338Y-15677937D02*
X9222290Y-15687461D01*
X9222290Y-15687461D02*
X9165148Y-15687461D01*
X9165148Y-15687461D02*
X9146100Y-15677937D01*
X9146100Y-15677937D02*
X9136576Y-15668414D01*
X9355624Y-15687461D02*
X9393719Y-15687461D01*
X9393719Y-15687461D02*
X9412767Y-15677937D01*
X9412767Y-15677937D02*
X9422290Y-15668414D01*
X9422290Y-15668414D02*
X9441338Y-15639842D01*
X9441338Y-15639842D02*
X9450862Y-15601747D01*
X9450862Y-15601747D02*
X9450862Y-15525556D01*
X9450862Y-15525556D02*
X9441338Y-15506509D01*
X9441338Y-15506509D02*
X9431814Y-15496985D01*
X9431814Y-15496985D02*
X9412767Y-15487461D01*
X9412767Y-15487461D02*
X9374671Y-15487461D01*
X9374671Y-15487461D02*
X9355624Y-15496985D01*
X9355624Y-15496985D02*
X9346100Y-15506509D01*
X9346100Y-15506509D02*
X9336576Y-15525556D01*
X9336576Y-15525556D02*
X9336576Y-15573175D01*
X9336576Y-15573175D02*
X9346100Y-15592223D01*
X9346100Y-15592223D02*
X9355624Y-15601747D01*
X9355624Y-15601747D02*
X9374671Y-15611271D01*
X9374671Y-15611271D02*
X9412767Y-15611271D01*
X9412767Y-15611271D02*
X9431814Y-15601747D01*
X9431814Y-15601747D02*
X9441338Y-15592223D01*
X9441338Y-15592223D02*
X9450862Y-15573175D01*
X9574671Y-15487461D02*
X9593719Y-15487461D01*
X9593719Y-15487461D02*
X9612767Y-15496985D01*
X9612767Y-15496985D02*
X9622290Y-15506509D01*
X9622290Y-15506509D02*
X9631814Y-15525556D01*
X9631814Y-15525556D02*
X9641338Y-15563652D01*
X9641338Y-15563652D02*
X9641338Y-15611271D01*
X9641338Y-15611271D02*
X9631814Y-15649366D01*
X9631814Y-15649366D02*
X9622290Y-15668414D01*
X9622290Y-15668414D02*
X9612767Y-15677937D01*
X9612767Y-15677937D02*
X9593719Y-15687461D01*
X9593719Y-15687461D02*
X9574671Y-15687461D01*
X9574671Y-15687461D02*
X9555624Y-15677937D01*
X9555624Y-15677937D02*
X9546100Y-15668414D01*
X9546100Y-15668414D02*
X9536576Y-15649366D01*
X9536576Y-15649366D02*
X9527052Y-15611271D01*
X9527052Y-15611271D02*
X9527052Y-15563652D01*
X9527052Y-15563652D02*
X9536576Y-15525556D01*
X9536576Y-15525556D02*
X9546100Y-15506509D01*
X9546100Y-15506509D02*
X9555624Y-15496985D01*
X9555624Y-15496985D02*
X9574671Y-15487461D01*
X9727052Y-15687461D02*
X9727052Y-15554128D01*
X9727052Y-15573175D02*
X9736576Y-15563652D01*
X9736576Y-15563652D02*
X9755624Y-15554128D01*
X9755624Y-15554128D02*
X9784195Y-15554128D01*
X9784195Y-15554128D02*
X9803243Y-15563652D01*
X9803243Y-15563652D02*
X9812767Y-15582699D01*
X9812767Y-15582699D02*
X9812767Y-15687461D01*
X9812767Y-15582699D02*
X9822290Y-15563652D01*
X9822290Y-15563652D02*
X9841338Y-15554128D01*
X9841338Y-15554128D02*
X9869909Y-15554128D01*
X9869909Y-15554128D02*
X9888957Y-15563652D01*
X9888957Y-15563652D02*
X9898481Y-15582699D01*
X9898481Y-15582699D02*
X9898481Y-15687461D01*
X9993719Y-15687461D02*
X9993719Y-15554128D01*
X9993719Y-15573175D02*
X10003243Y-15563652D01*
X10003243Y-15563652D02*
X10022290Y-15554128D01*
X10022290Y-15554128D02*
X10050862Y-15554128D01*
X10050862Y-15554128D02*
X10069910Y-15563652D01*
X10069910Y-15563652D02*
X10079433Y-15582699D01*
X10079433Y-15582699D02*
X10079433Y-15687461D01*
X10079433Y-15582699D02*
X10088957Y-15563652D01*
X10088957Y-15563652D02*
X10108005Y-15554128D01*
X10108005Y-15554128D02*
X10136576Y-15554128D01*
X10136576Y-15554128D02*
X10155624Y-15563652D01*
X10155624Y-15563652D02*
X10165148Y-15582699D01*
X10165148Y-15582699D02*
X10165148Y-15687461D01*
X10555624Y-15477937D02*
X10384195Y-15735080D01*
X10812767Y-15487461D02*
X10831814Y-15487461D01*
X10831814Y-15487461D02*
X10850862Y-15496985D01*
X10850862Y-15496985D02*
X10860386Y-15506509D01*
X10860386Y-15506509D02*
X10869910Y-15525556D01*
X10869910Y-15525556D02*
X10879433Y-15563652D01*
X10879433Y-15563652D02*
X10879433Y-15611271D01*
X10879433Y-15611271D02*
X10869910Y-15649366D01*
X10869910Y-15649366D02*
X10860386Y-15668414D01*
X10860386Y-15668414D02*
X10850862Y-15677937D01*
X10850862Y-15677937D02*
X10831814Y-15687461D01*
X10831814Y-15687461D02*
X10812767Y-15687461D01*
X10812767Y-15687461D02*
X10793719Y-15677937D01*
X10793719Y-15677937D02*
X10784195Y-15668414D01*
X10784195Y-15668414D02*
X10774672Y-15649366D01*
X10774672Y-15649366D02*
X10765148Y-15611271D01*
X10765148Y-15611271D02*
X10765148Y-15563652D01*
X10765148Y-15563652D02*
X10774672Y-15525556D01*
X10774672Y-15525556D02*
X10784195Y-15506509D01*
X10784195Y-15506509D02*
X10793719Y-15496985D01*
X10793719Y-15496985D02*
X10812767Y-15487461D01*
X10965148Y-15668414D02*
X10974672Y-15677937D01*
X10974672Y-15677937D02*
X10965148Y-15687461D01*
X10965148Y-15687461D02*
X10955624Y-15677937D01*
X10955624Y-15677937D02*
X10965148Y-15668414D01*
X10965148Y-15668414D02*
X10965148Y-15687461D01*
X11098481Y-15487461D02*
X11117529Y-15487461D01*
X11117529Y-15487461D02*
X11136576Y-15496985D01*
X11136576Y-15496985D02*
X11146100Y-15506509D01*
X11146100Y-15506509D02*
X11155624Y-15525556D01*
X11155624Y-15525556D02*
X11165148Y-15563652D01*
X11165148Y-15563652D02*
X11165148Y-15611271D01*
X11165148Y-15611271D02*
X11155624Y-15649366D01*
X11155624Y-15649366D02*
X11146100Y-15668414D01*
X11146100Y-15668414D02*
X11136576Y-15677937D01*
X11136576Y-15677937D02*
X11117529Y-15687461D01*
X11117529Y-15687461D02*
X11098481Y-15687461D01*
X11098481Y-15687461D02*
X11079433Y-15677937D01*
X11079433Y-15677937D02*
X11069910Y-15668414D01*
X11069910Y-15668414D02*
X11060386Y-15649366D01*
X11060386Y-15649366D02*
X11050862Y-15611271D01*
X11050862Y-15611271D02*
X11050862Y-15563652D01*
X11050862Y-15563652D02*
X11060386Y-15525556D01*
X11060386Y-15525556D02*
X11069910Y-15506509D01*
X11069910Y-15506509D02*
X11079433Y-15496985D01*
X11079433Y-15496985D02*
X11098481Y-15487461D01*
X11260386Y-15687461D02*
X11298481Y-15687461D01*
X11298481Y-15687461D02*
X11317529Y-15677937D01*
X11317529Y-15677937D02*
X11327052Y-15668414D01*
X11327052Y-15668414D02*
X11346100Y-15639842D01*
X11346100Y-15639842D02*
X11355624Y-15601747D01*
X11355624Y-15601747D02*
X11355624Y-15525556D01*
X11355624Y-15525556D02*
X11346100Y-15506509D01*
X11346100Y-15506509D02*
X11336576Y-15496985D01*
X11336576Y-15496985D02*
X11317529Y-15487461D01*
X11317529Y-15487461D02*
X11279433Y-15487461D01*
X11279433Y-15487461D02*
X11260386Y-15496985D01*
X11260386Y-15496985D02*
X11250862Y-15506509D01*
X11250862Y-15506509D02*
X11241338Y-15525556D01*
X11241338Y-15525556D02*
X11241338Y-15573175D01*
X11241338Y-15573175D02*
X11250862Y-15592223D01*
X11250862Y-15592223D02*
X11260386Y-15601747D01*
X11260386Y-15601747D02*
X11279433Y-15611271D01*
X11279433Y-15611271D02*
X11317529Y-15611271D01*
X11317529Y-15611271D02*
X11336576Y-15601747D01*
X11336576Y-15601747D02*
X11346100Y-15592223D01*
X11346100Y-15592223D02*
X11355624Y-15573175D01*
X11527052Y-15554128D02*
X11527052Y-15687461D01*
X11479433Y-15477937D02*
X11431814Y-15620795D01*
X11431814Y-15620795D02*
X11555624Y-15620795D01*
X11736576Y-15687461D02*
X11622291Y-15687461D01*
X11679433Y-15687461D02*
X11679433Y-15487461D01*
X11679433Y-15487461D02*
X11660386Y-15516033D01*
X11660386Y-15516033D02*
X11641338Y-15535080D01*
X11641338Y-15535080D02*
X11622291Y-15544604D01*
X11812767Y-15487461D02*
X11812767Y-15525556D01*
X11888957Y-15487461D02*
X11888957Y-15525556D01*
X12184195Y-15763652D02*
X12174672Y-15754128D01*
X12174672Y-15754128D02*
X12155624Y-15725556D01*
X12155624Y-15725556D02*
X12146100Y-15706509D01*
X12146100Y-15706509D02*
X12136576Y-15677937D01*
X12136576Y-15677937D02*
X12127053Y-15630318D01*
X12127053Y-15630318D02*
X12127053Y-15592223D01*
X12127053Y-15592223D02*
X12136576Y-15544604D01*
X12136576Y-15544604D02*
X12146100Y-15516033D01*
X12146100Y-15516033D02*
X12155624Y-15496985D01*
X12155624Y-15496985D02*
X12174672Y-15468414D01*
X12174672Y-15468414D02*
X12184195Y-15458890D01*
X12250862Y-15506509D02*
X12260386Y-15496985D01*
X12260386Y-15496985D02*
X12279433Y-15487461D01*
X12279433Y-15487461D02*
X12327053Y-15487461D01*
X12327053Y-15487461D02*
X12346100Y-15496985D01*
X12346100Y-15496985D02*
X12355624Y-15506509D01*
X12355624Y-15506509D02*
X12365148Y-15525556D01*
X12365148Y-15525556D02*
X12365148Y-15544604D01*
X12365148Y-15544604D02*
X12355624Y-15573175D01*
X12355624Y-15573175D02*
X12241338Y-15687461D01*
X12241338Y-15687461D02*
X12365148Y-15687461D01*
X12603243Y-15687461D02*
X12603243Y-15487461D01*
X12688957Y-15687461D02*
X12688957Y-15582699D01*
X12688957Y-15582699D02*
X12679434Y-15563652D01*
X12679434Y-15563652D02*
X12660386Y-15554128D01*
X12660386Y-15554128D02*
X12631814Y-15554128D01*
X12631814Y-15554128D02*
X12612767Y-15563652D01*
X12612767Y-15563652D02*
X12603243Y-15573175D01*
X12812767Y-15687461D02*
X12793719Y-15677937D01*
X12793719Y-15677937D02*
X12784195Y-15668414D01*
X12784195Y-15668414D02*
X12774672Y-15649366D01*
X12774672Y-15649366D02*
X12774672Y-15592223D01*
X12774672Y-15592223D02*
X12784195Y-15573175D01*
X12784195Y-15573175D02*
X12793719Y-15563652D01*
X12793719Y-15563652D02*
X12812767Y-15554128D01*
X12812767Y-15554128D02*
X12841338Y-15554128D01*
X12841338Y-15554128D02*
X12860386Y-15563652D01*
X12860386Y-15563652D02*
X12869910Y-15573175D01*
X12869910Y-15573175D02*
X12879434Y-15592223D01*
X12879434Y-15592223D02*
X12879434Y-15649366D01*
X12879434Y-15649366D02*
X12869910Y-15668414D01*
X12869910Y-15668414D02*
X12860386Y-15677937D01*
X12860386Y-15677937D02*
X12841338Y-15687461D01*
X12841338Y-15687461D02*
X12812767Y-15687461D01*
X12993719Y-15687461D02*
X12974672Y-15677937D01*
X12974672Y-15677937D02*
X12965148Y-15658890D01*
X12965148Y-15658890D02*
X12965148Y-15487461D01*
X13146100Y-15677937D02*
X13127053Y-15687461D01*
X13127053Y-15687461D02*
X13088957Y-15687461D01*
X13088957Y-15687461D02*
X13069910Y-15677937D01*
X13069910Y-15677937D02*
X13060386Y-15658890D01*
X13060386Y-15658890D02*
X13060386Y-15582699D01*
X13060386Y-15582699D02*
X13069910Y-15563652D01*
X13069910Y-15563652D02*
X13088957Y-15554128D01*
X13088957Y-15554128D02*
X13127053Y-15554128D01*
X13127053Y-15554128D02*
X13146100Y-15563652D01*
X13146100Y-15563652D02*
X13155624Y-15582699D01*
X13155624Y-15582699D02*
X13155624Y-15601747D01*
X13155624Y-15601747D02*
X13060386Y-15620795D01*
X13231815Y-15677937D02*
X13250862Y-15687461D01*
X13250862Y-15687461D02*
X13288957Y-15687461D01*
X13288957Y-15687461D02*
X13308005Y-15677937D01*
X13308005Y-15677937D02*
X13317529Y-15658890D01*
X13317529Y-15658890D02*
X13317529Y-15649366D01*
X13317529Y-15649366D02*
X13308005Y-15630318D01*
X13308005Y-15630318D02*
X13288957Y-15620795D01*
X13288957Y-15620795D02*
X13260386Y-15620795D01*
X13260386Y-15620795D02*
X13241338Y-15611271D01*
X13241338Y-15611271D02*
X13231815Y-15592223D01*
X13231815Y-15592223D02*
X13231815Y-15582699D01*
X13231815Y-15582699D02*
X13241338Y-15563652D01*
X13241338Y-15563652D02*
X13260386Y-15554128D01*
X13260386Y-15554128D02*
X13288957Y-15554128D01*
X13288957Y-15554128D02*
X13308005Y-15563652D01*
X13384196Y-15763652D02*
X13393719Y-15754128D01*
X13393719Y-15754128D02*
X13412767Y-15725556D01*
X13412767Y-15725556D02*
X13422291Y-15706509D01*
X13422291Y-15706509D02*
X13431815Y-15677937D01*
X13431815Y-15677937D02*
X13441338Y-15630318D01*
X13441338Y-15630318D02*
X13441338Y-15592223D01*
X13441338Y-15592223D02*
X13431815Y-15544604D01*
X13431815Y-15544604D02*
X13422291Y-15516033D01*
X13422291Y-15516033D02*
X13412767Y-15496985D01*
X13412767Y-15496985D02*
X13393719Y-15468414D01*
X13393719Y-15468414D02*
X13384196Y-15458890D01*
X13746100Y-15763652D02*
X13736576Y-15754128D01*
X13736576Y-15754128D02*
X13717529Y-15725556D01*
X13717529Y-15725556D02*
X13708005Y-15706509D01*
X13708005Y-15706509D02*
X13698481Y-15677937D01*
X13698481Y-15677937D02*
X13688957Y-15630318D01*
X13688957Y-15630318D02*
X13688957Y-15592223D01*
X13688957Y-15592223D02*
X13698481Y-15544604D01*
X13698481Y-15544604D02*
X13708005Y-15516033D01*
X13708005Y-15516033D02*
X13717529Y-15496985D01*
X13717529Y-15496985D02*
X13736576Y-15468414D01*
X13736576Y-15468414D02*
X13746100Y-15458890D01*
X13822291Y-15554128D02*
X13822291Y-15687461D01*
X13822291Y-15573175D02*
X13831815Y-15563652D01*
X13831815Y-15563652D02*
X13850862Y-15554128D01*
X13850862Y-15554128D02*
X13879434Y-15554128D01*
X13879434Y-15554128D02*
X13898481Y-15563652D01*
X13898481Y-15563652D02*
X13908005Y-15582699D01*
X13908005Y-15582699D02*
X13908005Y-15687461D01*
X14031815Y-15687461D02*
X14012767Y-15677937D01*
X14012767Y-15677937D02*
X14003243Y-15668414D01*
X14003243Y-15668414D02*
X13993719Y-15649366D01*
X13993719Y-15649366D02*
X13993719Y-15592223D01*
X13993719Y-15592223D02*
X14003243Y-15573175D01*
X14003243Y-15573175D02*
X14012767Y-15563652D01*
X14012767Y-15563652D02*
X14031815Y-15554128D01*
X14031815Y-15554128D02*
X14060386Y-15554128D01*
X14060386Y-15554128D02*
X14079434Y-15563652D01*
X14079434Y-15563652D02*
X14088957Y-15573175D01*
X14088957Y-15573175D02*
X14098481Y-15592223D01*
X14098481Y-15592223D02*
X14098481Y-15649366D01*
X14098481Y-15649366D02*
X14088957Y-15668414D01*
X14088957Y-15668414D02*
X14079434Y-15677937D01*
X14079434Y-15677937D02*
X14060386Y-15687461D01*
X14060386Y-15687461D02*
X14031815Y-15687461D01*
X14155624Y-15554128D02*
X14231815Y-15554128D01*
X14184196Y-15487461D02*
X14184196Y-15658890D01*
X14184196Y-15658890D02*
X14193719Y-15677937D01*
X14193719Y-15677937D02*
X14212767Y-15687461D01*
X14212767Y-15687461D02*
X14231815Y-15687461D01*
X14450862Y-15554128D02*
X14450862Y-15754128D01*
X14450862Y-15563652D02*
X14469910Y-15554128D01*
X14469910Y-15554128D02*
X14508005Y-15554128D01*
X14508005Y-15554128D02*
X14527053Y-15563652D01*
X14527053Y-15563652D02*
X14536577Y-15573175D01*
X14536577Y-15573175D02*
X14546100Y-15592223D01*
X14546100Y-15592223D02*
X14546100Y-15649366D01*
X14546100Y-15649366D02*
X14536577Y-15668414D01*
X14536577Y-15668414D02*
X14527053Y-15677937D01*
X14527053Y-15677937D02*
X14508005Y-15687461D01*
X14508005Y-15687461D02*
X14469910Y-15687461D01*
X14469910Y-15687461D02*
X14450862Y-15677937D01*
X14660386Y-15687461D02*
X14641338Y-15677937D01*
X14641338Y-15677937D02*
X14631815Y-15658890D01*
X14631815Y-15658890D02*
X14631815Y-15487461D01*
X14822291Y-15687461D02*
X14822291Y-15582699D01*
X14822291Y-15582699D02*
X14812767Y-15563652D01*
X14812767Y-15563652D02*
X14793719Y-15554128D01*
X14793719Y-15554128D02*
X14755624Y-15554128D01*
X14755624Y-15554128D02*
X14736577Y-15563652D01*
X14822291Y-15677937D02*
X14803243Y-15687461D01*
X14803243Y-15687461D02*
X14755624Y-15687461D01*
X14755624Y-15687461D02*
X14736577Y-15677937D01*
X14736577Y-15677937D02*
X14727053Y-15658890D01*
X14727053Y-15658890D02*
X14727053Y-15639842D01*
X14727053Y-15639842D02*
X14736577Y-15620795D01*
X14736577Y-15620795D02*
X14755624Y-15611271D01*
X14755624Y-15611271D02*
X14803243Y-15611271D01*
X14803243Y-15611271D02*
X14822291Y-15601747D01*
X14888958Y-15554128D02*
X14965148Y-15554128D01*
X14917529Y-15487461D02*
X14917529Y-15658890D01*
X14917529Y-15658890D02*
X14927053Y-15677937D01*
X14927053Y-15677937D02*
X14946100Y-15687461D01*
X14946100Y-15687461D02*
X14965148Y-15687461D01*
X15108005Y-15677937D02*
X15088958Y-15687461D01*
X15088958Y-15687461D02*
X15050862Y-15687461D01*
X15050862Y-15687461D02*
X15031815Y-15677937D01*
X15031815Y-15677937D02*
X15022291Y-15658890D01*
X15022291Y-15658890D02*
X15022291Y-15582699D01*
X15022291Y-15582699D02*
X15031815Y-15563652D01*
X15031815Y-15563652D02*
X15050862Y-15554128D01*
X15050862Y-15554128D02*
X15088958Y-15554128D01*
X15088958Y-15554128D02*
X15108005Y-15563652D01*
X15108005Y-15563652D02*
X15117529Y-15582699D01*
X15117529Y-15582699D02*
X15117529Y-15601747D01*
X15117529Y-15601747D02*
X15022291Y-15620795D01*
X15288958Y-15687461D02*
X15288958Y-15487461D01*
X15288958Y-15677937D02*
X15269910Y-15687461D01*
X15269910Y-15687461D02*
X15231815Y-15687461D01*
X15231815Y-15687461D02*
X15212767Y-15677937D01*
X15212767Y-15677937D02*
X15203243Y-15668414D01*
X15203243Y-15668414D02*
X15193719Y-15649366D01*
X15193719Y-15649366D02*
X15193719Y-15592223D01*
X15193719Y-15592223D02*
X15203243Y-15573175D01*
X15203243Y-15573175D02*
X15212767Y-15563652D01*
X15212767Y-15563652D02*
X15231815Y-15554128D01*
X15231815Y-15554128D02*
X15269910Y-15554128D01*
X15269910Y-15554128D02*
X15288958Y-15563652D01*
X15365148Y-15763652D02*
X15374672Y-15754128D01*
X15374672Y-15754128D02*
X15393719Y-15725556D01*
X15393719Y-15725556D02*
X15403243Y-15706509D01*
X15403243Y-15706509D02*
X15412767Y-15677937D01*
X15412767Y-15677937D02*
X15422291Y-15630318D01*
X15422291Y-15630318D02*
X15422291Y-15592223D01*
X15422291Y-15592223D02*
X15412767Y-15544604D01*
X15412767Y-15544604D02*
X15403243Y-15516033D01*
X15403243Y-15516033D02*
X15393719Y-15496985D01*
X15393719Y-15496985D02*
X15374672Y-15468414D01*
X15374672Y-15468414D02*
X15365148Y-15458890D01*
X8609133Y-15915977D02*
G75*
G02*
X8409133Y-15915977I-100000J0D01*
G01*
X8409133Y-15915977D02*
G75*
G02*
X8609133Y-15915977I100000J0D01*
G01*
X8850862Y-15807461D02*
X8974671Y-15807461D01*
X8974671Y-15807461D02*
X8908005Y-15883652D01*
X8908005Y-15883652D02*
X8936576Y-15883652D01*
X8936576Y-15883652D02*
X8955624Y-15893175D01*
X8955624Y-15893175D02*
X8965148Y-15902699D01*
X8965148Y-15902699D02*
X8974671Y-15921747D01*
X8974671Y-15921747D02*
X8974671Y-15969366D01*
X8974671Y-15969366D02*
X8965148Y-15988414D01*
X8965148Y-15988414D02*
X8955624Y-15997937D01*
X8955624Y-15997937D02*
X8936576Y-16007461D01*
X8936576Y-16007461D02*
X8879433Y-16007461D01*
X8879433Y-16007461D02*
X8860386Y-15997937D01*
X8860386Y-15997937D02*
X8850862Y-15988414D01*
X9060386Y-15988414D02*
X9069909Y-15997937D01*
X9069909Y-15997937D02*
X9060386Y-16007461D01*
X9060386Y-16007461D02*
X9050862Y-15997937D01*
X9050862Y-15997937D02*
X9060386Y-15988414D01*
X9060386Y-15988414D02*
X9060386Y-16007461D01*
X9241338Y-15874128D02*
X9241338Y-16007461D01*
X9193719Y-15797937D02*
X9146100Y-15940795D01*
X9146100Y-15940795D02*
X9269909Y-15940795D01*
X9441338Y-15807461D02*
X9346100Y-15807461D01*
X9346100Y-15807461D02*
X9336576Y-15902699D01*
X9336576Y-15902699D02*
X9346100Y-15893175D01*
X9346100Y-15893175D02*
X9365148Y-15883652D01*
X9365148Y-15883652D02*
X9412767Y-15883652D01*
X9412767Y-15883652D02*
X9431814Y-15893175D01*
X9431814Y-15893175D02*
X9441338Y-15902699D01*
X9441338Y-15902699D02*
X9450862Y-15921747D01*
X9450862Y-15921747D02*
X9450862Y-15969366D01*
X9450862Y-15969366D02*
X9441338Y-15988414D01*
X9441338Y-15988414D02*
X9431814Y-15997937D01*
X9431814Y-15997937D02*
X9412767Y-16007461D01*
X9412767Y-16007461D02*
X9365148Y-16007461D01*
X9365148Y-16007461D02*
X9346100Y-15997937D01*
X9346100Y-15997937D02*
X9336576Y-15988414D01*
X9574671Y-15807461D02*
X9593719Y-15807461D01*
X9593719Y-15807461D02*
X9612767Y-15816985D01*
X9612767Y-15816985D02*
X9622290Y-15826509D01*
X9622290Y-15826509D02*
X9631814Y-15845556D01*
X9631814Y-15845556D02*
X9641338Y-15883652D01*
X9641338Y-15883652D02*
X9641338Y-15931271D01*
X9641338Y-15931271D02*
X9631814Y-15969366D01*
X9631814Y-15969366D02*
X9622290Y-15988414D01*
X9622290Y-15988414D02*
X9612767Y-15997937D01*
X9612767Y-15997937D02*
X9593719Y-16007461D01*
X9593719Y-16007461D02*
X9574671Y-16007461D01*
X9574671Y-16007461D02*
X9555624Y-15997937D01*
X9555624Y-15997937D02*
X9546100Y-15988414D01*
X9546100Y-15988414D02*
X9536576Y-15969366D01*
X9536576Y-15969366D02*
X9527052Y-15931271D01*
X9527052Y-15931271D02*
X9527052Y-15883652D01*
X9527052Y-15883652D02*
X9536576Y-15845556D01*
X9536576Y-15845556D02*
X9546100Y-15826509D01*
X9546100Y-15826509D02*
X9555624Y-15816985D01*
X9555624Y-15816985D02*
X9574671Y-15807461D01*
X9727052Y-16007461D02*
X9727052Y-15874128D01*
X9727052Y-15893175D02*
X9736576Y-15883652D01*
X9736576Y-15883652D02*
X9755624Y-15874128D01*
X9755624Y-15874128D02*
X9784195Y-15874128D01*
X9784195Y-15874128D02*
X9803243Y-15883652D01*
X9803243Y-15883652D02*
X9812767Y-15902699D01*
X9812767Y-15902699D02*
X9812767Y-16007461D01*
X9812767Y-15902699D02*
X9822290Y-15883652D01*
X9822290Y-15883652D02*
X9841338Y-15874128D01*
X9841338Y-15874128D02*
X9869909Y-15874128D01*
X9869909Y-15874128D02*
X9888957Y-15883652D01*
X9888957Y-15883652D02*
X9898481Y-15902699D01*
X9898481Y-15902699D02*
X9898481Y-16007461D01*
X9993719Y-16007461D02*
X9993719Y-15874128D01*
X9993719Y-15893175D02*
X10003243Y-15883652D01*
X10003243Y-15883652D02*
X10022290Y-15874128D01*
X10022290Y-15874128D02*
X10050862Y-15874128D01*
X10050862Y-15874128D02*
X10069910Y-15883652D01*
X10069910Y-15883652D02*
X10079433Y-15902699D01*
X10079433Y-15902699D02*
X10079433Y-16007461D01*
X10079433Y-15902699D02*
X10088957Y-15883652D01*
X10088957Y-15883652D02*
X10108005Y-15874128D01*
X10108005Y-15874128D02*
X10136576Y-15874128D01*
X10136576Y-15874128D02*
X10155624Y-15883652D01*
X10155624Y-15883652D02*
X10165148Y-15902699D01*
X10165148Y-15902699D02*
X10165148Y-16007461D01*
X10555624Y-15797937D02*
X10384195Y-16055080D01*
X10812767Y-15807461D02*
X10831814Y-15807461D01*
X10831814Y-15807461D02*
X10850862Y-15816985D01*
X10850862Y-15816985D02*
X10860386Y-15826509D01*
X10860386Y-15826509D02*
X10869910Y-15845556D01*
X10869910Y-15845556D02*
X10879433Y-15883652D01*
X10879433Y-15883652D02*
X10879433Y-15931271D01*
X10879433Y-15931271D02*
X10869910Y-15969366D01*
X10869910Y-15969366D02*
X10860386Y-15988414D01*
X10860386Y-15988414D02*
X10850862Y-15997937D01*
X10850862Y-15997937D02*
X10831814Y-16007461D01*
X10831814Y-16007461D02*
X10812767Y-16007461D01*
X10812767Y-16007461D02*
X10793719Y-15997937D01*
X10793719Y-15997937D02*
X10784195Y-15988414D01*
X10784195Y-15988414D02*
X10774672Y-15969366D01*
X10774672Y-15969366D02*
X10765148Y-15931271D01*
X10765148Y-15931271D02*
X10765148Y-15883652D01*
X10765148Y-15883652D02*
X10774672Y-15845556D01*
X10774672Y-15845556D02*
X10784195Y-15826509D01*
X10784195Y-15826509D02*
X10793719Y-15816985D01*
X10793719Y-15816985D02*
X10812767Y-15807461D01*
X10965148Y-15988414D02*
X10974672Y-15997937D01*
X10974672Y-15997937D02*
X10965148Y-16007461D01*
X10965148Y-16007461D02*
X10955624Y-15997937D01*
X10955624Y-15997937D02*
X10965148Y-15988414D01*
X10965148Y-15988414D02*
X10965148Y-16007461D01*
X11165148Y-16007461D02*
X11050862Y-16007461D01*
X11108005Y-16007461D02*
X11108005Y-15807461D01*
X11108005Y-15807461D02*
X11088957Y-15836033D01*
X11088957Y-15836033D02*
X11069910Y-15855080D01*
X11069910Y-15855080D02*
X11050862Y-15864604D01*
X11231814Y-15807461D02*
X11355624Y-15807461D01*
X11355624Y-15807461D02*
X11288957Y-15883652D01*
X11288957Y-15883652D02*
X11317529Y-15883652D01*
X11317529Y-15883652D02*
X11336576Y-15893175D01*
X11336576Y-15893175D02*
X11346100Y-15902699D01*
X11346100Y-15902699D02*
X11355624Y-15921747D01*
X11355624Y-15921747D02*
X11355624Y-15969366D01*
X11355624Y-15969366D02*
X11346100Y-15988414D01*
X11346100Y-15988414D02*
X11336576Y-15997937D01*
X11336576Y-15997937D02*
X11317529Y-16007461D01*
X11317529Y-16007461D02*
X11260386Y-16007461D01*
X11260386Y-16007461D02*
X11241338Y-15997937D01*
X11241338Y-15997937D02*
X11231814Y-15988414D01*
X11536576Y-15807461D02*
X11441338Y-15807461D01*
X11441338Y-15807461D02*
X11431814Y-15902699D01*
X11431814Y-15902699D02*
X11441338Y-15893175D01*
X11441338Y-15893175D02*
X11460386Y-15883652D01*
X11460386Y-15883652D02*
X11508005Y-15883652D01*
X11508005Y-15883652D02*
X11527052Y-15893175D01*
X11527052Y-15893175D02*
X11536576Y-15902699D01*
X11536576Y-15902699D02*
X11546100Y-15921747D01*
X11546100Y-15921747D02*
X11546100Y-15969366D01*
X11546100Y-15969366D02*
X11536576Y-15988414D01*
X11536576Y-15988414D02*
X11527052Y-15997937D01*
X11527052Y-15997937D02*
X11508005Y-16007461D01*
X11508005Y-16007461D02*
X11460386Y-16007461D01*
X11460386Y-16007461D02*
X11441338Y-15997937D01*
X11441338Y-15997937D02*
X11431814Y-15988414D01*
X11660386Y-15893175D02*
X11641338Y-15883652D01*
X11641338Y-15883652D02*
X11631814Y-15874128D01*
X11631814Y-15874128D02*
X11622291Y-15855080D01*
X11622291Y-15855080D02*
X11622291Y-15845556D01*
X11622291Y-15845556D02*
X11631814Y-15826509D01*
X11631814Y-15826509D02*
X11641338Y-15816985D01*
X11641338Y-15816985D02*
X11660386Y-15807461D01*
X11660386Y-15807461D02*
X11698481Y-15807461D01*
X11698481Y-15807461D02*
X11717529Y-15816985D01*
X11717529Y-15816985D02*
X11727052Y-15826509D01*
X11727052Y-15826509D02*
X11736576Y-15845556D01*
X11736576Y-15845556D02*
X11736576Y-15855080D01*
X11736576Y-15855080D02*
X11727052Y-15874128D01*
X11727052Y-15874128D02*
X11717529Y-15883652D01*
X11717529Y-15883652D02*
X11698481Y-15893175D01*
X11698481Y-15893175D02*
X11660386Y-15893175D01*
X11660386Y-15893175D02*
X11641338Y-15902699D01*
X11641338Y-15902699D02*
X11631814Y-15912223D01*
X11631814Y-15912223D02*
X11622291Y-15931271D01*
X11622291Y-15931271D02*
X11622291Y-15969366D01*
X11622291Y-15969366D02*
X11631814Y-15988414D01*
X11631814Y-15988414D02*
X11641338Y-15997937D01*
X11641338Y-15997937D02*
X11660386Y-16007461D01*
X11660386Y-16007461D02*
X11698481Y-16007461D01*
X11698481Y-16007461D02*
X11717529Y-15997937D01*
X11717529Y-15997937D02*
X11727052Y-15988414D01*
X11727052Y-15988414D02*
X11736576Y-15969366D01*
X11736576Y-15969366D02*
X11736576Y-15931271D01*
X11736576Y-15931271D02*
X11727052Y-15912223D01*
X11727052Y-15912223D02*
X11717529Y-15902699D01*
X11717529Y-15902699D02*
X11698481Y-15893175D01*
X11812767Y-15807461D02*
X11812767Y-15845556D01*
X11888957Y-15807461D02*
X11888957Y-15845556D01*
X12184195Y-16083652D02*
X12174672Y-16074128D01*
X12174672Y-16074128D02*
X12155624Y-16045556D01*
X12155624Y-16045556D02*
X12146100Y-16026509D01*
X12146100Y-16026509D02*
X12136576Y-15997937D01*
X12136576Y-15997937D02*
X12127053Y-15950318D01*
X12127053Y-15950318D02*
X12127053Y-15912223D01*
X12127053Y-15912223D02*
X12136576Y-15864604D01*
X12136576Y-15864604D02*
X12146100Y-15836033D01*
X12146100Y-15836033D02*
X12155624Y-15816985D01*
X12155624Y-15816985D02*
X12174672Y-15788414D01*
X12174672Y-15788414D02*
X12184195Y-15778890D01*
X12241338Y-15807461D02*
X12365148Y-15807461D01*
X12365148Y-15807461D02*
X12298481Y-15883652D01*
X12298481Y-15883652D02*
X12327053Y-15883652D01*
X12327053Y-15883652D02*
X12346100Y-15893175D01*
X12346100Y-15893175D02*
X12355624Y-15902699D01*
X12355624Y-15902699D02*
X12365148Y-15921747D01*
X12365148Y-15921747D02*
X12365148Y-15969366D01*
X12365148Y-15969366D02*
X12355624Y-15988414D01*
X12355624Y-15988414D02*
X12346100Y-15997937D01*
X12346100Y-15997937D02*
X12327053Y-16007461D01*
X12327053Y-16007461D02*
X12269910Y-16007461D01*
X12269910Y-16007461D02*
X12250862Y-15997937D01*
X12250862Y-15997937D02*
X12241338Y-15988414D01*
X12603243Y-16007461D02*
X12603243Y-15807461D01*
X12688957Y-16007461D02*
X12688957Y-15902699D01*
X12688957Y-15902699D02*
X12679434Y-15883652D01*
X12679434Y-15883652D02*
X12660386Y-15874128D01*
X12660386Y-15874128D02*
X12631814Y-15874128D01*
X12631814Y-15874128D02*
X12612767Y-15883652D01*
X12612767Y-15883652D02*
X12603243Y-15893175D01*
X12812767Y-16007461D02*
X12793719Y-15997937D01*
X12793719Y-15997937D02*
X12784195Y-15988414D01*
X12784195Y-15988414D02*
X12774672Y-15969366D01*
X12774672Y-15969366D02*
X12774672Y-15912223D01*
X12774672Y-15912223D02*
X12784195Y-15893175D01*
X12784195Y-15893175D02*
X12793719Y-15883652D01*
X12793719Y-15883652D02*
X12812767Y-15874128D01*
X12812767Y-15874128D02*
X12841338Y-15874128D01*
X12841338Y-15874128D02*
X12860386Y-15883652D01*
X12860386Y-15883652D02*
X12869910Y-15893175D01*
X12869910Y-15893175D02*
X12879434Y-15912223D01*
X12879434Y-15912223D02*
X12879434Y-15969366D01*
X12879434Y-15969366D02*
X12869910Y-15988414D01*
X12869910Y-15988414D02*
X12860386Y-15997937D01*
X12860386Y-15997937D02*
X12841338Y-16007461D01*
X12841338Y-16007461D02*
X12812767Y-16007461D01*
X12993719Y-16007461D02*
X12974672Y-15997937D01*
X12974672Y-15997937D02*
X12965148Y-15978890D01*
X12965148Y-15978890D02*
X12965148Y-15807461D01*
X13146100Y-15997937D02*
X13127053Y-16007461D01*
X13127053Y-16007461D02*
X13088957Y-16007461D01*
X13088957Y-16007461D02*
X13069910Y-15997937D01*
X13069910Y-15997937D02*
X13060386Y-15978890D01*
X13060386Y-15978890D02*
X13060386Y-15902699D01*
X13060386Y-15902699D02*
X13069910Y-15883652D01*
X13069910Y-15883652D02*
X13088957Y-15874128D01*
X13088957Y-15874128D02*
X13127053Y-15874128D01*
X13127053Y-15874128D02*
X13146100Y-15883652D01*
X13146100Y-15883652D02*
X13155624Y-15902699D01*
X13155624Y-15902699D02*
X13155624Y-15921747D01*
X13155624Y-15921747D02*
X13060386Y-15940795D01*
X13231815Y-15997937D02*
X13250862Y-16007461D01*
X13250862Y-16007461D02*
X13288957Y-16007461D01*
X13288957Y-16007461D02*
X13308005Y-15997937D01*
X13308005Y-15997937D02*
X13317529Y-15978890D01*
X13317529Y-15978890D02*
X13317529Y-15969366D01*
X13317529Y-15969366D02*
X13308005Y-15950318D01*
X13308005Y-15950318D02*
X13288957Y-15940795D01*
X13288957Y-15940795D02*
X13260386Y-15940795D01*
X13260386Y-15940795D02*
X13241338Y-15931271D01*
X13241338Y-15931271D02*
X13231815Y-15912223D01*
X13231815Y-15912223D02*
X13231815Y-15902699D01*
X13231815Y-15902699D02*
X13241338Y-15883652D01*
X13241338Y-15883652D02*
X13260386Y-15874128D01*
X13260386Y-15874128D02*
X13288957Y-15874128D01*
X13288957Y-15874128D02*
X13308005Y-15883652D01*
X13384196Y-16083652D02*
X13393719Y-16074128D01*
X13393719Y-16074128D02*
X13412767Y-16045556D01*
X13412767Y-16045556D02*
X13422291Y-16026509D01*
X13422291Y-16026509D02*
X13431815Y-15997937D01*
X13431815Y-15997937D02*
X13441338Y-15950318D01*
X13441338Y-15950318D02*
X13441338Y-15912223D01*
X13441338Y-15912223D02*
X13431815Y-15864604D01*
X13431815Y-15864604D02*
X13422291Y-15836033D01*
X13422291Y-15836033D02*
X13412767Y-15816985D01*
X13412767Y-15816985D02*
X13393719Y-15788414D01*
X13393719Y-15788414D02*
X13384196Y-15778890D01*
X13746100Y-16083652D02*
X13736576Y-16074128D01*
X13736576Y-16074128D02*
X13717529Y-16045556D01*
X13717529Y-16045556D02*
X13708005Y-16026509D01*
X13708005Y-16026509D02*
X13698481Y-15997937D01*
X13698481Y-15997937D02*
X13688957Y-15950318D01*
X13688957Y-15950318D02*
X13688957Y-15912223D01*
X13688957Y-15912223D02*
X13698481Y-15864604D01*
X13698481Y-15864604D02*
X13708005Y-15836033D01*
X13708005Y-15836033D02*
X13717529Y-15816985D01*
X13717529Y-15816985D02*
X13736576Y-15788414D01*
X13736576Y-15788414D02*
X13746100Y-15778890D01*
X13822291Y-15874128D02*
X13822291Y-16007461D01*
X13822291Y-15893175D02*
X13831815Y-15883652D01*
X13831815Y-15883652D02*
X13850862Y-15874128D01*
X13850862Y-15874128D02*
X13879434Y-15874128D01*
X13879434Y-15874128D02*
X13898481Y-15883652D01*
X13898481Y-15883652D02*
X13908005Y-15902699D01*
X13908005Y-15902699D02*
X13908005Y-16007461D01*
X14031815Y-16007461D02*
X14012767Y-15997937D01*
X14012767Y-15997937D02*
X14003243Y-15988414D01*
X14003243Y-15988414D02*
X13993719Y-15969366D01*
X13993719Y-15969366D02*
X13993719Y-15912223D01*
X13993719Y-15912223D02*
X14003243Y-15893175D01*
X14003243Y-15893175D02*
X14012767Y-15883652D01*
X14012767Y-15883652D02*
X14031815Y-15874128D01*
X14031815Y-15874128D02*
X14060386Y-15874128D01*
X14060386Y-15874128D02*
X14079434Y-15883652D01*
X14079434Y-15883652D02*
X14088957Y-15893175D01*
X14088957Y-15893175D02*
X14098481Y-15912223D01*
X14098481Y-15912223D02*
X14098481Y-15969366D01*
X14098481Y-15969366D02*
X14088957Y-15988414D01*
X14088957Y-15988414D02*
X14079434Y-15997937D01*
X14079434Y-15997937D02*
X14060386Y-16007461D01*
X14060386Y-16007461D02*
X14031815Y-16007461D01*
X14155624Y-15874128D02*
X14231815Y-15874128D01*
X14184196Y-15807461D02*
X14184196Y-15978890D01*
X14184196Y-15978890D02*
X14193719Y-15997937D01*
X14193719Y-15997937D02*
X14212767Y-16007461D01*
X14212767Y-16007461D02*
X14231815Y-16007461D01*
X14450862Y-15874128D02*
X14450862Y-16074128D01*
X14450862Y-15883652D02*
X14469910Y-15874128D01*
X14469910Y-15874128D02*
X14508005Y-15874128D01*
X14508005Y-15874128D02*
X14527053Y-15883652D01*
X14527053Y-15883652D02*
X14536577Y-15893175D01*
X14536577Y-15893175D02*
X14546100Y-15912223D01*
X14546100Y-15912223D02*
X14546100Y-15969366D01*
X14546100Y-15969366D02*
X14536577Y-15988414D01*
X14536577Y-15988414D02*
X14527053Y-15997937D01*
X14527053Y-15997937D02*
X14508005Y-16007461D01*
X14508005Y-16007461D02*
X14469910Y-16007461D01*
X14469910Y-16007461D02*
X14450862Y-15997937D01*
X14660386Y-16007461D02*
X14641338Y-15997937D01*
X14641338Y-15997937D02*
X14631815Y-15978890D01*
X14631815Y-15978890D02*
X14631815Y-15807461D01*
X14822291Y-16007461D02*
X14822291Y-15902699D01*
X14822291Y-15902699D02*
X14812767Y-15883652D01*
X14812767Y-15883652D02*
X14793719Y-15874128D01*
X14793719Y-15874128D02*
X14755624Y-15874128D01*
X14755624Y-15874128D02*
X14736577Y-15883652D01*
X14822291Y-15997937D02*
X14803243Y-16007461D01*
X14803243Y-16007461D02*
X14755624Y-16007461D01*
X14755624Y-16007461D02*
X14736577Y-15997937D01*
X14736577Y-15997937D02*
X14727053Y-15978890D01*
X14727053Y-15978890D02*
X14727053Y-15959842D01*
X14727053Y-15959842D02*
X14736577Y-15940795D01*
X14736577Y-15940795D02*
X14755624Y-15931271D01*
X14755624Y-15931271D02*
X14803243Y-15931271D01*
X14803243Y-15931271D02*
X14822291Y-15921747D01*
X14888958Y-15874128D02*
X14965148Y-15874128D01*
X14917529Y-15807461D02*
X14917529Y-15978890D01*
X14917529Y-15978890D02*
X14927053Y-15997937D01*
X14927053Y-15997937D02*
X14946100Y-16007461D01*
X14946100Y-16007461D02*
X14965148Y-16007461D01*
X15108005Y-15997937D02*
X15088958Y-16007461D01*
X15088958Y-16007461D02*
X15050862Y-16007461D01*
X15050862Y-16007461D02*
X15031815Y-15997937D01*
X15031815Y-15997937D02*
X15022291Y-15978890D01*
X15022291Y-15978890D02*
X15022291Y-15902699D01*
X15022291Y-15902699D02*
X15031815Y-15883652D01*
X15031815Y-15883652D02*
X15050862Y-15874128D01*
X15050862Y-15874128D02*
X15088958Y-15874128D01*
X15088958Y-15874128D02*
X15108005Y-15883652D01*
X15108005Y-15883652D02*
X15117529Y-15902699D01*
X15117529Y-15902699D02*
X15117529Y-15921747D01*
X15117529Y-15921747D02*
X15022291Y-15940795D01*
X15288958Y-16007461D02*
X15288958Y-15807461D01*
X15288958Y-15997937D02*
X15269910Y-16007461D01*
X15269910Y-16007461D02*
X15231815Y-16007461D01*
X15231815Y-16007461D02*
X15212767Y-15997937D01*
X15212767Y-15997937D02*
X15203243Y-15988414D01*
X15203243Y-15988414D02*
X15193719Y-15969366D01*
X15193719Y-15969366D02*
X15193719Y-15912223D01*
X15193719Y-15912223D02*
X15203243Y-15893175D01*
X15203243Y-15893175D02*
X15212767Y-15883652D01*
X15212767Y-15883652D02*
X15231815Y-15874128D01*
X15231815Y-15874128D02*
X15269910Y-15874128D01*
X15269910Y-15874128D02*
X15288958Y-15883652D01*
X15365148Y-16083652D02*
X15374672Y-16074128D01*
X15374672Y-16074128D02*
X15393719Y-16045556D01*
X15393719Y-16045556D02*
X15403243Y-16026509D01*
X15403243Y-16026509D02*
X15412767Y-15997937D01*
X15412767Y-15997937D02*
X15422291Y-15950318D01*
X15422291Y-15950318D02*
X15422291Y-15912223D01*
X15422291Y-15912223D02*
X15412767Y-15864604D01*
X15412767Y-15864604D02*
X15403243Y-15836033D01*
X15403243Y-15836033D02*
X15393719Y-15816985D01*
X15393719Y-15816985D02*
X15374672Y-15788414D01*
X15374672Y-15788414D02*
X15365148Y-15778890D01*
M02*
