%TF.GenerationSoftware,KiCad,Pcbnew,9.0.6*%
%TF.CreationDate,2026-02-24T19:23:16+07:00*%
%TF.ProjectId,ps,70732e6b-6963-4616-945f-706362585858,rev?*%
%TF.SameCoordinates,Original*%
%TF.FileFunction,Plated,1,2,PTH,Mixed*%
%TF.FilePolarity,Positive*%
%FSLAX46Y46*%
G04 Gerber Fmt 4.6, Leading zero omitted, Abs format (unit mm)*
G04 Created by KiCad (PCBNEW 9.0.6) date 2026-02-24 19:23:16*
%MOMM*%
%LPD*%
G01*
G04 APERTURE LIST*
%TA.AperFunction,ViaDrill*%
%ADD10C,0.300000*%
%TD*%
%TA.AperFunction,ComponentDrill*%
%ADD11C,0.300000*%
%TD*%
G04 aperture for slot hole*
%TA.AperFunction,ComponentDrill*%
%ADD12C,0.600000*%
%TD*%
G04 aperture for slot hole*
%TA.AperFunction,ComponentDrill*%
%ADD13C,0.700000*%
%TD*%
%TA.AperFunction,ComponentDrill*%
%ADD14C,0.800000*%
%TD*%
%TA.AperFunction,ComponentDrill*%
%ADD15C,0.850000*%
%TD*%
%TA.AperFunction,ComponentDrill*%
%ADD16C,0.889000*%
%TD*%
%TA.AperFunction,ComponentDrill*%
%ADD17C,0.900000*%
%TD*%
%TA.AperFunction,ComponentDrill*%
%ADD18C,1.000000*%
%TD*%
%TA.AperFunction,ComponentDrill*%
%ADD19C,1.200000*%
%TD*%
%TA.AperFunction,ComponentDrill*%
%ADD20C,1.397000*%
%TD*%
%TA.AperFunction,ComponentDrill*%
%ADD21C,2.000000*%
%TD*%
G04 APERTURE END LIST*
D10*
X95750000Y-125500000D03*
X95750000Y-126500000D03*
X95750000Y-131000000D03*
X95750000Y-132000000D03*
X96250000Y-119250000D03*
X96250000Y-120250000D03*
X97000000Y-125500000D03*
X97000000Y-126500000D03*
X97000000Y-131000000D03*
X97000000Y-132000000D03*
X97500000Y-119250000D03*
X97500000Y-120250000D03*
X98250000Y-125500000D03*
X98250000Y-126500000D03*
X98250000Y-131000000D03*
X98250000Y-132000000D03*
X98750000Y-119250000D03*
X98750000Y-120250000D03*
X103250000Y-119250000D03*
X103250000Y-120250000D03*
X104250000Y-107250000D03*
X104250000Y-108250000D03*
X104500000Y-119250000D03*
X104500000Y-120250000D03*
X105500000Y-107250000D03*
X105500000Y-108250000D03*
X105750000Y-119250000D03*
X105750000Y-120250000D03*
X106750000Y-107250000D03*
X106750000Y-108250000D03*
X107750000Y-132250000D03*
X107750000Y-133250000D03*
X109000000Y-132250000D03*
X109000000Y-133250000D03*
X110250000Y-132250000D03*
X110250000Y-133250000D03*
X110500000Y-107250000D03*
X110500000Y-108250000D03*
X111750000Y-107250000D03*
X111750000Y-108250000D03*
X113000000Y-107250000D03*
X113000000Y-108250000D03*
X115748200Y-79044300D03*
X117125100Y-94098200D03*
X119001800Y-73658000D03*
X119544200Y-82253000D03*
X123219600Y-77966400D03*
X123250000Y-85000000D03*
X123250000Y-86000000D03*
X123750000Y-80000000D03*
X123750000Y-81000000D03*
X124500000Y-85000000D03*
X124500000Y-86000000D03*
X124781600Y-88971200D03*
X125000000Y-80000000D03*
X125000000Y-81000000D03*
X125750000Y-85000000D03*
X125750000Y-86000000D03*
X126250000Y-80000000D03*
X126250000Y-81000000D03*
X134546000Y-111220600D03*
X135500000Y-124500000D03*
X135500000Y-125500000D03*
X135750000Y-65000000D03*
X135750000Y-66000000D03*
X136750000Y-124500000D03*
X136750000Y-125500000D03*
X137000000Y-65000000D03*
X137000000Y-66000000D03*
X138000000Y-124500000D03*
X138000000Y-125500000D03*
X139912500Y-99034800D03*
X142012100Y-107363200D03*
X142506800Y-82445900D03*
X144043200Y-71414700D03*
X144126100Y-72846300D03*
X144401900Y-79282700D03*
X144474700Y-77504000D03*
X147077800Y-74392600D03*
X147229400Y-76820100D03*
X147776700Y-72124400D03*
X147845900Y-73008600D03*
X148800600Y-99560000D03*
X151842100Y-89558400D03*
X151875000Y-63150000D03*
X151966900Y-71883500D03*
X152717600Y-75007900D03*
X154000000Y-77000000D03*
X154803300Y-72621000D03*
X155009800Y-76253800D03*
X155650000Y-87900000D03*
X156356200Y-65886200D03*
X157312500Y-66159600D03*
X158664000Y-84388900D03*
X159165600Y-69713300D03*
X159725000Y-85875000D03*
X160419100Y-100010500D03*
X160675000Y-71125000D03*
X160760000Y-83475000D03*
X160900000Y-124250000D03*
X162600000Y-102500000D03*
X163000000Y-62000000D03*
X163000000Y-63000000D03*
X163350000Y-123840000D03*
X163880000Y-81310000D03*
X163950000Y-90400000D03*
X164000000Y-85960000D03*
X164250000Y-62000000D03*
X164250000Y-63000000D03*
X165500000Y-80000000D03*
X167117500Y-83104100D03*
X167500000Y-81475000D03*
X167650000Y-84975000D03*
X168500000Y-75350000D03*
X169387800Y-64478600D03*
X169700000Y-71695000D03*
X170925000Y-131525000D03*
X171280300Y-103971400D03*
X171716600Y-110679100D03*
X171889700Y-113378000D03*
X172327800Y-99310400D03*
X172802300Y-83615900D03*
X173050000Y-100650000D03*
X174139700Y-69640700D03*
X174365200Y-62086400D03*
X174879800Y-66795800D03*
X174900000Y-100600000D03*
X175750000Y-82250000D03*
X175750000Y-83250000D03*
X176000000Y-72500000D03*
X176000000Y-73500000D03*
X176541800Y-89063300D03*
X176853900Y-80748800D03*
X177000000Y-78250000D03*
X177000000Y-79250000D03*
X177250000Y-72500000D03*
X177250000Y-73500000D03*
X179342600Y-116761500D03*
X179925000Y-66650000D03*
X180375000Y-81075000D03*
X180750000Y-72000000D03*
X180750000Y-73000000D03*
X181231100Y-88410300D03*
X181631400Y-76365900D03*
X182000000Y-85750000D03*
X182000000Y-86750000D03*
X182500000Y-79500000D03*
X182500000Y-80500000D03*
X182575400Y-89644500D03*
X182576900Y-91429100D03*
X183250000Y-85750000D03*
X183250000Y-86750000D03*
X186000000Y-72500000D03*
X186000000Y-73500000D03*
X187250000Y-72500000D03*
X187250000Y-73500000D03*
X188500000Y-72500000D03*
X188500000Y-73500000D03*
X191000000Y-74750000D03*
X191000000Y-75750000D03*
X191000000Y-77500000D03*
X191000000Y-78500000D03*
X192250000Y-74750000D03*
X192250000Y-75750000D03*
X192250000Y-77500000D03*
X192250000Y-78500000D03*
X193500000Y-74750000D03*
X193500000Y-75750000D03*
X193500000Y-77500000D03*
X193500000Y-78500000D03*
X193550000Y-59325000D03*
X195250000Y-70750000D03*
X195250000Y-71750000D03*
X196500000Y-70750000D03*
X196500000Y-71750000D03*
X197750000Y-70750000D03*
X197750000Y-71750000D03*
X203425000Y-79075000D03*
X206800000Y-82525000D03*
X207000000Y-77525000D03*
X207500000Y-67750000D03*
X207500000Y-68750000D03*
X208750000Y-67750000D03*
X208750000Y-68750000D03*
X210000000Y-67750000D03*
X210000000Y-68750000D03*
D11*
%TO.C,U1*%
X156350000Y-69630000D03*
D12*
%TO.C,J1*%
X213033314Y-55361406D02*
X212343948Y-55482960D01*
X213559485Y-62376615D02*
X214248851Y-62255061D01*
D13*
%TO.C,S2*%
X100111901Y-82136052D02*
X99324055Y-81997134D01*
X101570545Y-73863666D02*
X100782699Y-73724748D01*
%TO.C,S1*%
X187286509Y-59322805D02*
X187852195Y-59888491D01*
X193226205Y-53383109D02*
X193791891Y-53948795D01*
D14*
%TO.C,S2*%
X100100004Y-79900016D03*
X100447300Y-77930400D03*
X100794596Y-75960784D03*
%TO.C,SW15*%
X117647500Y-52440000D03*
X117647500Y-60060000D03*
X120187500Y-52440000D03*
X120187500Y-60060000D03*
X122727500Y-52440000D03*
X122727500Y-60060000D03*
%TO.C,S1*%
X189124986Y-58050014D03*
X190539200Y-56635800D03*
X191953414Y-55221586D03*
D15*
%TO.C,J1*%
X210203298Y-56875841D03*
X211071539Y-61799880D03*
D16*
%TO.C,U2*%
X118090000Y-111080000D03*
X118090000Y-113620000D03*
X118090000Y-116160000D03*
X125710000Y-123780000D03*
X128250000Y-123780000D03*
X130790000Y-123780000D03*
%TO.C,U3*%
X173690000Y-111516300D03*
X173690000Y-114056300D03*
X173690000Y-116596300D03*
X181310000Y-124216300D03*
X183850000Y-124216300D03*
X186390000Y-124216300D03*
D17*
%TO.C,U2*%
X125075000Y-100920000D03*
X125075000Y-106000000D03*
X131425000Y-100920000D03*
X131425000Y-106000000D03*
%TO.C,U3*%
X180675000Y-101356300D03*
X180675000Y-106436300D03*
X187025000Y-101356300D03*
X187025000Y-106436300D03*
D18*
%TO.C,U5*%
X152415000Y-104150000D03*
X154955000Y-104150000D03*
X157495000Y-104150000D03*
X160035000Y-104150000D03*
D19*
%TO.C,RV2*%
X101200918Y-67581779D03*
X102069159Y-62657739D03*
X102937400Y-57733700D03*
X106124957Y-68450019D03*
X106993198Y-63525980D03*
X107861439Y-58601941D03*
D20*
%TO.C,U2*%
X120630000Y-106952500D03*
X120630000Y-120287500D03*
X135870000Y-106952500D03*
X135870000Y-120287500D03*
%TO.C,U3*%
X176230000Y-107388800D03*
X176230000Y-120723800D03*
X191470000Y-107388800D03*
X191470000Y-120723800D03*
D21*
%TO.C,U5*%
X145225000Y-104650000D03*
X145225000Y-126650000D03*
X167225000Y-104650000D03*
X167225000Y-126650000D03*
M02*
