M48
; DRILL file {KiCad 9.0.6} date 2026-02-05T01:15:10+0700
; FORMAT={-:-/ absolute / metric / decimal}
; #@! TF.CreationDate,2026-02-05T01:15:10+07:00
; #@! TF.GenerationSoftware,Kicad,Pcbnew,9.0.6
; #@! TF.FileFunction,MixedPlating,1,2
FMAT,2
METRIC
; #@! TA.AperFunction,Plated,PTH,ViaDrill
T1C0.300
; #@! TA.AperFunction,Plated,PTH,ComponentDrill
T2C0.300
; #@! TA.AperFunction,Plated,PTH,ComponentDrill
T3C0.600
; #@! TA.AperFunction,Plated,PTH,ComponentDrill
T4C0.700
; #@! TA.AperFunction,Plated,PTH,ComponentDrill
T5C0.800
; #@! TA.AperFunction,Plated,PTH,ComponentDrill
T6C0.850
; #@! TA.AperFunction,Plated,PTH,ComponentDrill
T7C0.889
; #@! TA.AperFunction,Plated,PTH,ComponentDrill
T8C0.900
; #@! TA.AperFunction,Plated,PTH,ComponentDrill
T9C1.000
; #@! TA.AperFunction,Plated,PTH,ComponentDrill
T10C1.200
; #@! TA.AperFunction,Plated,PTH,ComponentDrill
T11C1.397
; #@! TA.AperFunction,Plated,PTH,ComponentDrill
T12C2.000
; #@! TA.AperFunction,NonPlated,NPTH,ComponentDrill
T13C2.390
; #@! TA.AperFunction,NonPlated,NPTH,ComponentDrill
T14C3.450
%
G90
G05
T1
X95.75Y-125.5
X95.75Y-126.5
X95.75Y-131.0
X95.75Y-132.0
X96.25Y-119.25
X96.25Y-120.25
X97.0Y-125.5
X97.0Y-126.5
X97.0Y-131.0
X97.0Y-132.0
X97.5Y-119.25
X97.5Y-120.25
X98.25Y-125.5
X98.25Y-126.5
X98.25Y-131.0
X98.25Y-132.0
X98.75Y-119.25
X98.75Y-120.25
X103.25Y-119.25
X103.25Y-120.25
X104.25Y-107.25
X104.25Y-108.25
X104.5Y-119.25
X104.5Y-120.25
X105.5Y-107.25
X105.5Y-108.25
X105.75Y-119.25
X105.75Y-120.25
X106.75Y-107.25
X106.75Y-108.25
X107.75Y-132.25
X107.75Y-133.25
X109.0Y-132.25
X109.0Y-133.25
X110.25Y-132.25
X110.25Y-133.25
X110.5Y-107.25
X110.5Y-108.25
X111.75Y-107.25
X111.75Y-108.25
X113.0Y-107.25
X113.0Y-108.25
X115.748Y-79.044
X117.125Y-94.098
X119.002Y-73.658
X119.544Y-82.253
X123.22Y-77.966
X123.25Y-85.0
X123.25Y-86.0
X123.75Y-80.0
X123.75Y-81.0
X124.5Y-85.0
X124.5Y-86.0
X124.782Y-88.971
X125.0Y-80.0
X125.0Y-81.0
X125.75Y-85.0
X125.75Y-86.0
X126.25Y-80.0
X126.25Y-81.0
X134.546Y-111.221
X135.5Y-124.5
X135.5Y-125.5
X135.75Y-65.0
X135.75Y-66.0
X136.75Y-124.5
X136.75Y-125.5
X137.0Y-65.0
X137.0Y-66.0
X138.0Y-124.5
X138.0Y-125.5
X139.912Y-99.035
X142.012Y-107.363
X142.507Y-82.446
X144.043Y-71.415
X144.126Y-72.846
X144.402Y-79.283
X144.475Y-77.504
X147.078Y-74.393
X147.229Y-76.82
X147.777Y-72.124
X147.846Y-73.009
X148.801Y-99.56
X151.842Y-89.558
X151.875Y-63.15
X151.967Y-71.883
X152.718Y-75.008
X154.0Y-77.0
X154.803Y-72.621
X155.01Y-76.254
X155.65Y-87.9
X156.356Y-65.886
X157.312Y-66.16
X158.664Y-84.389
X159.166Y-69.713
X159.725Y-85.875
X160.419Y-100.01
X160.675Y-71.125
X160.76Y-83.475
X160.9Y-124.25
X162.6Y-102.5
X163.0Y-62.0
X163.0Y-63.0
X163.35Y-123.84
X163.88Y-81.31
X163.95Y-90.4
X164.0Y-85.96
X164.25Y-62.0
X164.25Y-63.0
X165.5Y-80.0
X167.117Y-83.104
X167.5Y-81.475
X167.65Y-84.975
X168.5Y-75.35
X169.388Y-64.479
X169.7Y-71.695
X170.925Y-131.525
X171.28Y-103.971
X171.717Y-110.679
X171.89Y-113.378
X172.328Y-99.31
X172.802Y-83.616
X173.05Y-100.65
X174.14Y-69.641
X174.365Y-62.086
X174.88Y-66.796
X174.9Y-100.6
X175.75Y-82.25
X175.75Y-83.25
X176.0Y-72.5
X176.0Y-73.5
X176.542Y-89.063
X176.854Y-80.749
X177.0Y-78.25
X177.0Y-79.25
X177.25Y-72.5
X177.25Y-73.5
X179.343Y-116.761
X179.925Y-66.65
X180.375Y-81.075
X180.75Y-72.0
X180.75Y-73.0
X181.231Y-88.41
X181.631Y-76.366
X182.0Y-85.75
X182.0Y-86.75
X182.5Y-79.5
X182.5Y-80.5
X182.575Y-89.644
X182.577Y-91.429
X183.25Y-85.75
X183.25Y-86.75
X186.0Y-72.5
X186.0Y-73.5
X187.25Y-72.5
X187.25Y-73.5
X188.5Y-72.5
X188.5Y-73.5
X191.0Y-74.75
X191.0Y-75.75
X191.0Y-77.5
X191.0Y-78.5
X192.25Y-74.75
X192.25Y-75.75
X192.25Y-77.5
X192.25Y-78.5
X193.5Y-74.75
X193.5Y-75.75
X193.5Y-77.5
X193.5Y-78.5
X193.55Y-59.325
X195.25Y-70.75
X195.25Y-71.75
X196.5Y-70.75
X196.5Y-71.75
X197.75Y-70.75
X197.75Y-71.75
X203.425Y-79.075
X206.8Y-82.525
X207.0Y-77.525
X207.5Y-67.75
X207.5Y-68.75
X208.75Y-67.75
X208.75Y-68.75
X210.0Y-67.75
X210.0Y-68.75
T2
X156.35Y-69.63
T5
X100.1Y-79.9
X100.447Y-77.93
X100.795Y-75.961
X117.647Y-52.44
X117.647Y-60.06
X120.188Y-52.44
X120.188Y-60.06
X122.727Y-52.44
X122.727Y-60.06
X189.125Y-58.05
X190.539Y-56.636
X191.953Y-55.222
T6
X210.203Y-56.876
X211.072Y-61.8
T7
X118.09Y-111.08
X118.09Y-113.62
X118.09Y-116.16
X125.71Y-123.78
X128.25Y-123.78
X130.79Y-123.78
X173.69Y-111.516
X173.69Y-114.056
X173.69Y-116.596
X181.31Y-124.216
X183.85Y-124.216
X186.39Y-124.216
T8
X125.075Y-100.92
X125.075Y-106.0
X131.425Y-100.92
X131.425Y-106.0
X180.675Y-101.356
X180.675Y-106.436
X187.025Y-101.356
X187.025Y-106.436
T9
X152.415Y-104.15
X154.955Y-104.15
X157.495Y-104.15
X160.035Y-104.15
T10
X101.201Y-67.582
X102.069Y-62.658
X102.937Y-57.734
X106.125Y-68.45
X106.993Y-63.526
X107.861Y-58.602
T11
X120.63Y-106.953
X120.63Y-120.287
X135.87Y-106.953
X135.87Y-120.287
X176.23Y-107.389
X176.23Y-120.724
X191.47Y-107.389
X191.47Y-120.724
T12
X145.225Y-104.65
X145.225Y-126.65
X167.225Y-104.65
X167.225Y-126.65
T13
X185.725Y-77.625
X195.417Y-65.061
T14
X119.325Y-77.625
X175.175Y-95.625
X214.975Y-72.325
T3
G00X212.344Y-55.483
M15
G01X213.033Y-55.361
M16
G05
G00X214.249Y-62.255
M15
G01X213.559Y-62.377
M16
G05
T4
G00X99.324Y-81.997
M15
G01X100.112Y-82.136
M16
G05
G00X100.783Y-73.725
M15
G01X101.571Y-73.864
M16
G05
G00X187.852Y-59.888
M15
G01X187.287Y-59.323
M16
G05
G00X193.792Y-53.949
M15
G01X193.226Y-53.383
M16
G05
M30
